<svg width="200" height="30" viewBox="0 0 200 30" fill="none" xmlns="http://www.w3.org/2000/svg">
<path d="M0.306641 2.24023C9.9968 2.24023 19.6165 2.24023 29.3066 2.24023C29.3066 10.9069 29.3066 19.5383 29.3066 28.2402C19.6517 28.2402 9.9968 28.2402 0.306641 28.2402C0.306641 19.5736 0.306641 10.9421 0.306641 2.24023ZM16.0576 20.3134V10.3432H12.5339V22.7091C12.5339 22.7091 18.348 22.8148 21.026 22.7091C23.4573 22.6386 25.0782 21.2294 25.7125 18.9042C26.382 16.4028 26.4172 13.8662 25.8182 11.3297C25.4306 9.67384 24.4792 8.33509 22.7526 7.80663C21.9069 7.56002 21.026 7.4191 20.145 7.4191C14.7185 7.38387 3.23131 7.4191 3.23131 7.4191V9.67384C3.23131 9.67384 7.77687 9.67384 8.19971 9.67384C8.19971 9.92045 8.19971 10.0614 8.19971 10.2375C8.19971 13.0912 8.19971 22.7091 8.19971 22.7091H11.6529V9.67384C11.6529 9.67384 16.8328 9.67384 19.1584 9.67384C20.8498 9.67384 21.7307 10.3784 22.1183 11.999C22.5059 13.5139 22.4707 15.0641 22.3297 16.579C22.2593 17.3893 22.0126 18.1996 21.7659 18.9747C21.484 19.7145 20.885 20.2429 20.0746 20.3486C18.5946 20.3134 16.0576 20.3134 16.0576 20.3134Z" fill="white"/>
<path d="M60.867 24.525C60.867 19.7593 60.867 15.1206 60.867 10.3548C62.8547 10.3548 64.784 10.3548 66.8302 10.3548C66.8302 11.0538 66.8302 11.7528 66.8302 12.4518C67.8825 10.6726 69.4026 9.97358 71.2149 9.97358C72.9688 9.97358 74.6057 10.3548 75.5411 12.2611C76.7689 10.2278 78.5812 9.8465 80.6274 9.97358C83.0828 10.1642 84.369 11.4986 84.4275 14.231C84.4859 17.154 84.4859 20.0135 84.4859 22.9365C84.4859 23.4448 84.4859 23.9531 84.4859 24.525C82.3813 24.525 80.3351 24.525 78.1135 24.525C78.1135 24.2709 78.1135 23.9531 78.1135 23.699C78.1135 21.2843 78.1135 18.8697 78.1135 16.3915C78.1135 16.1373 78.1135 15.8831 78.1135 15.6925C78.055 14.8029 77.6458 14.3581 76.9442 14.3581C76.3012 14.4216 75.8919 14.8029 75.8919 15.756C75.8919 18.3613 75.8919 20.9031 75.8919 23.5083C75.8919 23.8261 75.8919 24.1438 75.8919 24.525C73.7873 24.525 71.6826 24.525 69.5195 24.525C69.5195 24.2709 69.5195 23.9531 69.5195 23.699C69.5195 21.3479 69.5195 18.9968 69.5195 16.6456C69.5195 16.2644 69.5195 15.8196 69.461 15.4383C69.4026 14.7393 69.0518 14.3581 68.4087 14.3581C67.7656 14.3581 67.4148 14.7393 67.2979 15.4383C67.2394 15.8196 67.2394 16.2008 67.2394 16.5821C67.2394 19.1874 67.2394 21.8562 67.2394 24.5886C65.0763 24.525 62.9717 24.525 60.867 24.525Z" fill="white"/>
<path d="M37.3066 24.5885C38.0667 22.3009 38.7682 20.1404 39.4698 17.9799C40.7559 13.9767 42.0421 10.037 43.3283 6.03376C43.5037 5.52542 43.6791 5.33479 44.2052 5.33479C47.0699 5.39833 49.9931 5.33479 52.9162 5.33479C55.0208 11.6891 57.067 18.0435 59.2302 24.5249C58.4701 24.5249 57.8855 24.5249 57.2424 24.5249C55.7224 24.5249 54.2608 24.5249 52.7408 24.5249C52.2731 24.5249 52.0392 24.3978 51.9223 23.8895C51.6885 22.8728 51.3962 21.8561 51.0454 20.9029C50.9869 20.6488 50.6361 20.3946 50.4023 20.3946C48.8238 20.331 47.2453 20.3946 45.6668 20.331C45.2576 20.331 45.0822 20.4581 45.0237 20.9029C44.7899 21.9196 44.4976 22.9363 44.2052 23.953C44.1468 24.1437 43.9129 24.4614 43.7375 24.4614C41.6329 24.5885 39.5282 24.5885 37.3066 24.5885ZM46.1345 15.7559C47.4791 15.7559 48.7069 15.7559 50.0515 15.7559C49.4084 13.659 48.8238 11.6891 48.1807 9.65574C48.1222 9.65574 48.0638 9.65574 48.0053 9.65574C47.3622 11.6256 46.7776 13.659 46.1345 15.7559Z" fill="white"/>
<path d="M182.586 24.5881C180.657 24.5881 178.728 24.5881 176.74 24.5881C176.74 23.8256 176.74 23.063 176.74 22.3005C176.623 22.3641 176.565 22.3641 176.506 22.3641C175.571 24.461 173.934 25.0964 171.946 24.9693C169.9 24.8423 168.321 23.8256 167.444 21.7922C166.334 19.1233 166.275 16.3274 167.211 13.5315C168.614 9.21056 174.168 8.8293 176.214 12.07C176.214 9.33765 176.214 6.73237 176.214 4C178.377 4 180.423 4 182.586 4C182.586 10.7992 182.586 17.6619 182.586 24.5881ZM176.565 17.2806C176.448 16.5816 176.331 15.8191 176.155 15.1201C175.98 14.4847 175.454 14.167 174.811 14.167C174.226 14.167 173.758 14.4847 173.525 15.0566C173.057 16.4545 173.057 17.916 173.525 19.314C173.758 19.9494 174.226 20.2671 174.869 20.2671C175.512 20.2671 175.98 19.8859 176.155 19.2504C176.389 18.6785 176.448 17.9796 176.565 17.2806Z" fill="white"/>
<path d="M158.675 15.4383C158.558 14.4216 158.091 13.8497 156.98 13.6591C155.167 13.2778 153.472 13.5955 151.777 14.3581C151.543 14.4216 151.367 14.5487 151.134 14.6122C151.075 14.6122 151.017 14.6122 150.958 14.5487C150.958 13.4049 150.958 12.2611 150.958 11.1174C150.958 10.9267 151.192 10.6725 151.367 10.609C154.583 9.65585 157.798 9.52877 160.955 10.5455C163.294 11.2444 164.463 12.9601 164.521 15.6289C164.58 18.5519 164.521 21.5385 164.521 24.525C162.534 24.525 160.604 24.525 158.617 24.525C158.617 23.8896 158.617 23.3177 158.617 22.7458C158.5 22.7458 158.441 22.7458 158.441 22.7458C156.863 24.9698 154.7 25.224 152.361 24.5886C150.841 24.2073 149.672 23.1906 149.497 21.3479C149.263 19.3145 149.73 17.5988 151.484 16.455C152.712 15.6925 154.057 15.4383 155.46 15.3748C156.512 15.4383 157.564 15.4383 158.675 15.4383ZM158.675 18.1707C157.74 18.3613 156.804 18.4249 155.986 18.679C155.343 18.8697 155.167 19.5051 155.226 20.2676C155.343 20.9666 155.752 21.2208 156.337 21.3479C157.857 21.4749 158.851 20.2676 158.675 18.1707Z" fill="white"/>
<path d="M101.206 19.0602C98.1077 19.0602 95.243 19.0602 92.3783 19.0602C92.3198 20.0769 92.7875 20.7124 93.7814 21.0301C95.4184 21.5384 97.0553 21.3478 98.6338 20.9665C99.1015 20.8395 99.5108 20.7124 100.095 20.5217C100.095 21.6655 100.095 22.7458 100.095 23.8895C100.095 24.0166 99.8615 24.2073 99.7446 24.2708C96.763 25.0333 93.723 25.351 90.7414 24.4614C87.8767 23.5718 86.2397 21.2843 86.0643 18.0435C86.0059 17.3446 86.0059 16.582 86.1228 15.8831C86.4151 13.3413 87.7013 11.5621 89.9229 10.6725C91.9106 9.90998 94.0153 9.78289 96.0615 10.1641C98.4584 10.609 100.037 12.1975 100.622 14.7393C100.972 16.0737 101.031 17.5352 101.206 19.0602ZM95.5938 16.0101C95.5353 15.057 95.5353 14.1038 94.7753 13.4684C94.2491 13.0236 93.6645 13.0871 93.1383 13.4684C92.3783 14.1038 92.2614 14.9935 92.2614 16.0101C93.3722 16.0101 94.4245 16.0101 95.5938 16.0101Z" fill="white"/>
<path d="M199.248 18.9966C196.325 18.9966 193.46 18.9966 190.596 18.9966C190.537 20.0133 191.063 20.8394 192.174 20.9665C193.343 21.1571 194.513 21.1571 195.682 21.0936C196.559 21.03 197.377 20.7123 198.313 20.5217C198.313 21.6654 198.313 22.8092 198.313 24.0801C194.98 24.8426 191.59 25.4145 188.257 24.0801C185.802 23.1269 184.574 21.03 184.34 18.2341C184.282 17.2809 184.282 16.2642 184.457 15.3111C184.749 13.1506 185.86 11.6256 187.731 10.7995C190.07 9.71927 192.525 9.52864 195.039 10.2276C197.553 10.9266 199.014 13.1506 199.307 16.4549C199.307 17.2809 199.248 18.107 199.248 18.9966ZM190.479 15.9465C191.648 15.9465 192.7 15.9465 193.811 15.9465C193.753 14.9298 193.811 13.8496 192.876 13.4048C192.467 13.1506 191.706 13.2142 191.297 13.4683C190.479 13.9767 190.42 14.9934 190.479 15.9465Z" fill="white"/>
<path d="M133.069 10.2911C134.121 10.2911 134.998 10.2911 135.933 10.2911C135.933 11.689 135.933 12.9599 135.933 14.3578C134.998 14.3578 134.062 14.3578 133.127 14.3578C133.127 16.01 133.069 17.4715 133.127 18.9965C133.186 19.8861 133.77 20.3309 134.589 20.3309C134.998 20.3309 135.407 20.2038 135.933 20.2038C135.933 21.4747 135.933 22.682 135.933 23.9529C135.933 24.08 135.758 24.3342 135.583 24.3342C133.829 24.9061 132.075 25.1602 130.262 24.8425C128.275 24.5248 127.047 23.1904 126.813 20.9664C126.638 19.1871 126.696 17.3444 126.696 15.5652C126.696 15.2474 126.696 14.8662 126.696 14.4214C125.936 14.4214 125.235 14.4214 124.475 14.4214C124.475 13.0234 124.475 11.7526 124.475 10.3546C125.176 10.3546 125.878 10.3546 126.696 10.3546C126.696 9.3379 126.696 8.44829 126.696 7.55868C126.696 7.30451 126.93 6.92325 127.105 6.8597C128.918 6.22427 130.73 5.65238 132.542 5.01694C132.659 4.9534 132.835 4.9534 133.069 4.88986C133.069 6.66907 133.069 8.38475 133.069 10.2911Z" fill="white"/>
<path d="M113.893 10.0366C113.893 10.2273 113.951 10.3544 113.951 10.545C113.951 12.2607 113.951 13.9763 113.951 15.7555C113.659 15.692 113.483 15.692 113.25 15.6285C111.028 15.3107 109.274 16.8993 109.216 19.3775C109.216 20.839 109.216 22.237 109.216 23.6985C109.216 23.9527 109.216 24.2068 109.216 24.5245C107.052 24.5245 105.006 24.5245 102.902 24.5245C102.902 19.8223 102.902 15.1201 102.902 10.3544C104.831 10.3544 106.819 10.3544 108.806 10.3544C108.806 11.3075 108.806 12.2607 108.806 13.2138C109.976 10.9898 111.379 9.52829 113.893 10.0366Z" fill="white"/>
<path d="M144.176 24.5246C142.013 24.5246 139.967 24.5246 137.862 24.5246C137.862 19.7588 137.862 15.0566 137.862 10.2909C139.792 10.2909 141.721 10.2909 143.709 10.2909C143.709 11.244 143.709 12.1972 143.709 13.1503C143.767 13.2139 143.826 13.2139 143.826 13.2774C144.82 11.0534 146.223 9.4648 148.795 10.0367C148.795 11.943 148.795 13.7858 148.795 15.6921C148.561 15.6285 148.327 15.6285 148.152 15.565C145.93 15.2473 144.176 16.8994 144.176 19.314C144.176 20.7755 144.176 22.3006 144.176 23.7621C144.176 24.0798 144.176 24.2704 144.176 24.5246Z" fill="white"/>
<path d="M122.721 24.5248C120.616 24.5248 118.57 24.5248 116.465 24.5248C116.465 19.759 116.465 15.0568 116.465 10.2911C118.57 10.2911 120.616 10.2911 122.721 10.2911C122.721 15.0568 122.721 19.759 122.721 24.5248Z" fill="white"/>
<path d="M116.407 8.63867C116.407 7.11363 116.407 5.58859 116.407 4C118.453 4 120.557 4 122.662 4C122.662 5.52504 122.662 7.05009 122.662 8.63867C120.616 8.63867 118.57 8.63867 116.407 8.63867Z" fill="white"/>
</svg>
