<svg width="150" height="30" viewBox="0 0 150 30" fill="none" xmlns="http://www.w3.org/2000/svg">
<path d="M6.77385 15L3.38546 18.388L0 15L3.38546 11.612L6.77385 15ZM14.9886 6.77315L20.7901 12.5821L24.1756 9.19402L14.9886 0L5.80155 9.19402L9.18701 12.5821L14.9886 6.77315ZM26.5946 11.612L23.2091 15L26.5946 18.388L29.9771 15L26.5946 11.612ZM14.9886 23.2268L9.18701 17.4209L5.80155 20.806L14.9886 30L24.1756 20.806L20.7901 17.4209L14.9886 23.2268ZM14.9886 18.388L18.374 15L14.9886 11.612L11.6031 15L14.9886 18.388ZM50.7174 18.7134V18.6665C50.7174 16.4566 49.546 15.3517 47.6395 14.6249C48.8109 13.9654 49.8008 12.9308 49.8008 11.0756V11.0287C49.8008 8.44373 47.7332 6.77315 44.3741 6.77315H36.748V23.2268H44.5674C48.2779 23.2268 50.7233 21.7233 50.7233 18.7134H50.7174ZM46.2074 11.6794C46.2074 12.9015 45.197 13.4203 43.601 13.4203H40.2711V9.94724H43.8411C45.3669 9.94724 46.2133 10.5569 46.2133 11.6383L46.2074 11.6794ZM47.1241 18.262C47.1241 19.4842 46.1605 20.0469 44.5615 20.0469H40.2711V16.4332H44.4502C46.307 16.4332 47.1299 17.1161 47.1299 18.221L47.1241 18.262ZM58.3172 23.2268V6.77315H54.6886V23.2268H58.3172ZM77.7601 23.2268V6.77315H74.1784V16.905L66.4762 6.77315H63.1406V23.2268H66.7105V12.7667L74.6704 23.2268H77.7601ZM97.7946 23.2268L90.7367 6.65592H87.4011L80.3578 23.2268H84.0449L85.5531 19.5369H92.5056L94.008 23.2268H97.7946ZM91.2199 16.3394H86.8388L89.0235 11.0053L91.2199 16.3394ZM115.035 23.2268V6.77315H111.454V16.905L103.748 6.77315H100.416V23.2268H103.983V12.7667L111.946 23.2268H115.035ZM133.705 20.5715L131.406 18.2444C130.115 19.4168 128.964 20.17 127.084 20.17C124.266 20.17 122.316 17.8253 122.316 15V14.9531C122.316 12.1336 124.313 9.83001 127.084 9.83001C128.726 9.83001 130.012 10.5334 131.289 11.6852L133.582 9.02989C132.056 7.52638 130.202 6.49179 127.101 6.49179C122.052 6.49179 118.529 10.3224 118.529 14.9912V15.0381C118.529 19.7626 122.123 23.4994 126.961 23.4994C130.126 23.5082 132.004 22.3798 133.693 20.5715H133.705ZM149.139 23.2268V20.0029H140.201V16.5416H147.953V13.3177H140.201V9.99414H149.01V6.77022H136.607V23.2239L149.139 23.2268Z" fill="white"/>
</svg>
