<svg width="115" height="23" viewBox="0 0 115 23" fill="none" xmlns="http://www.w3.org/2000/svg">
<path d="M23.5148 6.37591C19.4226 6.37591 16.256 9.59489 16.256 13.938C16.256 18.281 19.3738 21.5 23.5148 21.5C27.6557 21.5 30.8223 18.2299 30.8223 13.938C30.8223 9.64599 27.7044 6.37591 23.5148 6.37591ZM23.5635 18.3321C21.2251 18.3321 19.5687 16.4416 19.5687 13.8869C19.5687 11.3321 21.2251 9.44161 23.5635 9.44161C25.9019 9.44161 27.607 11.3321 27.607 13.8869C27.607 16.4416 25.8532 18.3321 23.5635 18.3321ZM31.6992 9.64599H33.6966V21.1934H36.9606V6.63139H31.6992V9.64599ZM8.12025 9.4927C9.82534 9.4927 11.1894 10.5657 11.6766 12.2007H15.0868C14.4534 8.72628 11.7253 6.32482 8.12025 6.32482C4.07675 6.37591 0.910156 9.59489 0.910156 13.938C0.910156 18.281 4.02803 21.5 8.16896 21.5C11.6766 21.5 14.4534 19.1496 15.0868 15.6241H11.6766C11.1894 17.2591 9.82534 18.3832 8.16896 18.3832C5.83056 18.3832 4.17418 16.4927 4.17418 13.938C4.17418 11.3832 5.78184 9.4927 8.12025 9.4927ZM93.1311 12.5073L90.744 12.1496C89.6235 11.9963 88.7953 11.5876 88.7953 10.6679C88.7953 9.64599 89.8671 9.13504 91.2799 9.13504C92.8388 9.13504 93.8619 9.85036 94.0567 10.9745H97.1746C96.8336 8.06204 94.6901 6.32482 91.3773 6.32482C87.9671 6.32482 85.6774 8.16423 85.6774 10.7701C85.6774 13.2226 87.139 14.7044 90.1594 15.1131L92.5465 15.4708C93.7157 15.6241 94.349 16.135 94.349 17.0036C94.349 18.1788 93.2286 18.6387 91.6696 18.6387C89.7697 18.6387 88.6979 17.8212 88.503 16.5949H85.3364C85.6287 19.4562 87.7723 21.4489 91.6209 21.4489C95.1285 21.4489 97.5156 19.7628 97.5156 16.8504C97.5156 14.2956 95.8106 12.9672 93.1311 12.5073ZM35.353 0.653285C34.1838 0.653285 33.2581 1.57299 33.2581 2.79927C33.2581 4.02555 34.135 4.94526 35.353 4.94526C36.5222 4.94526 37.4478 4.02555 37.4478 2.79927C37.4478 1.57299 36.5222 0.653285 35.353 0.653285ZM82.8032 11.6387C82.8032 8.4708 80.9519 6.37591 77.1033 6.37591C73.4495 6.37591 71.4034 8.31752 70.965 11.281H74.1803C74.3264 10.1058 75.2033 9.18613 77.0546 9.18613C78.7109 9.18613 79.4904 9.95255 79.4904 10.8723C79.4904 12.0985 78.0289 12.4051 76.1777 12.6095C73.6931 12.9161 70.6239 13.7847 70.6239 17.1569C70.6239 19.7628 72.4752 21.4489 75.4469 21.4489C77.7853 21.4489 79.1981 20.427 79.9289 18.8431C80.0263 20.2737 81.0493 21.1934 82.5109 21.1934H84.4108V18.1788H82.8032V11.6387ZM79.5878 15.2664C79.5878 17.208 77.9802 18.6387 75.9828 18.6387C74.7649 18.6387 73.7418 18.1277 73.7418 16.9526C73.7418 15.5219 75.3982 15.1131 76.9084 14.9599C78.3699 14.8066 79.1494 14.5 79.5878 13.8358V15.2664ZM62.4395 6.37591C60.637 6.37591 59.1268 7.14234 58.055 8.4708V0.5H54.8397V21.1934H58.0063V19.3029C59.0781 20.6825 60.637 21.5 62.4395 21.5C66.3369 21.5 69.2599 18.281 69.2599 13.938C69.2599 9.59489 66.2881 6.37591 62.4395 6.37591ZM61.9524 18.3321C59.6139 18.3321 57.9576 16.4416 57.9576 13.8869C57.9576 11.3321 59.6627 9.44161 62.0011 9.44161C64.3395 9.44161 65.9958 11.3321 65.9958 13.8869C65.9958 16.4927 64.2908 18.3321 61.9524 18.3321ZM47.0937 6.37591C44.9989 6.37591 43.6348 7.29562 42.8066 8.5219V6.63139H39.5913V21.1934H42.8066V13.2737C42.8066 11.0255 44.1707 9.4927 46.1681 9.4927C48.0193 9.4927 49.1885 10.8723 49.1885 12.865V21.1934H52.4038V12.6095C52.4038 8.93066 50.6013 6.37591 47.0937 6.37591ZM112.91 13.4781C112.91 9.28832 109.987 6.37591 106.09 6.37591C101.949 6.37591 98.8797 9.64599 98.8797 13.938C98.8797 18.4854 102.144 21.5 106.139 21.5C109.5 21.5 112.131 19.4051 112.813 16.4416H109.451C108.964 17.719 107.795 18.4854 106.187 18.4854C104.092 18.4854 102.533 17.1569 102.192 14.7555H112.91V13.4781ZM102.387 12.354C102.923 10.3102 104.336 9.33942 106.041 9.33942C107.892 9.33942 109.256 10.4124 109.597 12.354H102.387Z" fill="white"/>
</svg>
