<svg width="173" height="29" viewBox="0 0 173 29" fill="none" xmlns="http://www.w3.org/2000/svg">
<path d="M17.6576 23.3359H15.8563L13.6999 21.3724V20.3655L15.9324 18.2509V14.9028L18.85 13.0148L22.1735 15.5069L17.6576 23.3359ZM10.1988 18.0495L10.5286 14.9028L9.43768 12.0833H15.8817L14.8161 14.9028L15.1206 18.0495H10.1988ZM11.6703 21.3724L9.51379 23.3611H7.68714L3.14589 15.5069L6.49475 13.0399L9.43768 14.9028V18.2509L11.6703 20.3655V21.3724ZM7.66177 6.26823H17.6322L18.8246 11.303H6.49475L7.66177 6.26823ZM12.6597 0L0 7.25V21.75L12.6597 29L25.3194 21.75V7.25L12.6597 0Z" fill="white"/>
<path d="M94.7876 11.1829V17.806C94.7876 18.9908 95.3835 19.4769 96.4263 19.4769H97.6181V22.2416H95.5325C93.3276 22.2416 91.7485 21.239 91.7485 18.292V11.1829H90.08V8.5398H91.7485V4.83333H94.7876V8.5398H97.6181V11.1829H94.7876Z" fill="white"/>
<path d="M72.3519 8.23606L65.648 26.1H62.5791L64.0391 22.3328L58.2886 8.23606H61.5363L65.4395 18.6567L69.1937 8.23606H72.3519Z" fill="white"/>
<path d="M33.8268 15.345C33.8268 19.2034 36.7169 22.3326 40.6499 22.3326C43.2123 22.3326 44.7318 21.2693 46.0428 19.8414L44.2253 17.9882C43.2719 18.9604 42.229 19.6591 40.7989 19.6591C38.4749 19.6591 36.8361 17.7147 36.8361 15.2843C36.8361 12.9146 38.4451 10.9702 40.6499 10.9702C42.1695 10.9702 43.1527 11.6386 44.0763 12.6411L45.9534 10.5752C44.7318 9.2081 43.1825 8.2663 40.6797 8.2663C36.7467 8.2663 33.8268 11.4867 33.8268 15.345Z" fill="white"/>
<path d="M48.7541 22.3326H51.7932V16.9248C51.7932 13.3399 53.6405 11.5778 56.2923 11.5778H56.4711V8.29665C54.1471 8.17513 52.6275 9.57265 51.7932 11.5778V8.29665H48.7541V22.3326Z" fill="white"/>
<path fill-rule="evenodd" clip-rule="evenodd" d="M77.5062 19.9327C78.4299 21.1783 79.8004 22.3024 81.9755 22.3024C85.1338 22.3024 88.1431 19.7504 88.1431 15.254C88.1431 10.7577 85.104 8.23606 81.9755 8.23606C79.86 8.23606 78.4895 9.36015 77.5062 10.7577V8.23606H74.4671V26.1H77.5062V19.9327ZM77.4466 15.2844C77.4466 12.6413 79.2343 10.94 81.2902 10.94C83.3461 10.94 85.0742 12.6109 85.0742 15.2844C85.0742 17.9579 83.3759 19.6289 81.2902 19.6289C79.2641 19.6289 77.4466 17.9275 77.4466 15.2844Z" fill="white"/>
<path fill-rule="evenodd" clip-rule="evenodd" d="M100.18 15.345C100.18 19.2034 103.16 22.3326 107.182 22.3326C111.294 22.3326 114.274 19.1123 114.274 15.2843C114.274 11.3955 111.294 8.2663 107.242 8.2663C103.19 8.2663 100.18 11.4563 100.18 15.345ZM103.19 15.2539C103.19 12.8842 104.739 10.9398 107.182 10.9398C109.566 10.9398 111.264 12.9146 111.205 15.3147C111.205 17.6844 109.655 19.6287 107.212 19.6287C104.858 19.6287 103.19 17.654 103.19 15.2539Z" fill="white"/>
<path fill-rule="evenodd" clip-rule="evenodd" d="M143.264 22.3326C139.242 22.3326 136.262 19.2034 136.262 15.345C136.262 11.4563 139.272 8.2663 143.324 8.2663C147.376 8.2663 150.356 11.3955 150.356 15.2843C150.356 19.1123 147.346 22.3326 143.264 22.3326ZM143.264 10.9398C140.821 10.9398 139.272 12.8842 139.272 15.2539C139.272 17.654 140.94 19.6287 143.294 19.6287C145.737 19.6287 147.287 17.6844 147.287 15.3147C147.316 12.9146 145.648 10.9398 143.264 10.9398Z" fill="white"/>
<path d="M173 13.4008C173 10.0893 171.242 8.23606 168.352 8.23606C166.356 8.23606 164.955 9.17786 163.853 10.6361C163.138 9.20825 161.827 8.26643 159.92 8.26643C157.894 8.26643 156.762 9.39053 155.898 10.5754V8.26643H152.858V22.3328H155.898V14.4338C155.898 12.3375 157.06 11.0615 158.728 11.0615C160.397 11.0615 161.41 12.2463 161.41 14.3426V22.3328H164.449V14.4034C164.449 12.2463 165.641 11.0615 167.279 11.0615C168.978 11.0615 169.961 12.1856 169.961 14.3426V22.3024H173V13.4008Z" fill="white"/>
<path d="M116.925 19.3254L118.236 18.5658H118.415L119.756 19.3254L119.845 19.4773V21.0571L119.756 21.209L118.415 21.9685H118.236L116.925 21.209L116.836 21.0571V19.4773L116.925 19.3254Z" fill="white"/>
<path d="M122.348 15.1628C122.288 19.0212 125.119 22.2112 129.052 22.3023C131.644 22.3631 133.193 21.3302 134.534 19.9023L132.747 18.0186C131.793 18.9908 130.72 19.6592 129.29 19.6288C126.966 19.5984 125.357 17.6237 125.417 15.1932C125.447 12.7931 127.085 10.9095 129.29 10.9399C130.81 10.9703 131.793 11.6994 132.687 12.702L134.594 10.6665C133.402 9.26896 131.853 8.29677 129.35 8.23601C125.387 8.14487 122.408 11.3045 122.348 15.1628Z" fill="white"/>
</svg>
