<svg width="169" height="24" viewBox="0 0 169 24" fill="none" xmlns="http://www.w3.org/2000/svg">
<path fill-rule="evenodd" clip-rule="evenodd" d="M51.273 23.5291C58.9517 23.5291 64.7689 20.9409 64.7689 11.9997C64.7689 3.05855 58.719 0.470313 51.273 0.470313H43.827V23.5291H51.273ZM49.1788 18.8239V4.70625H51.5057C55.694 4.70625 59.1843 5.64743 59.1843 11.7651C59.1843 17.8827 55.4613 18.8239 51.5057 18.8239H49.1788Z" fill="white"/>
<path fill-rule="evenodd" clip-rule="evenodd" d="M85.0127 0.470313V5.1762H72.913V9.1762H84.3147V14.1174H72.913V18.8233H85.0127V23.5291H67.3285V0.470313H85.0127Z" fill="white"/>
<path fill-rule="evenodd" clip-rule="evenodd" d="M104.326 7.52941C103.86 5.88235 102.232 4.47059 99.2068 4.47059C95.9491 4.47059 93.3896 7.05882 93.3896 11.7647C93.3896 16.7059 95.7165 19.2941 99.4395 19.2941C101.999 19.2941 104.559 18.3529 104.559 15.2941V15.0588H98.9741V10.5882H109.91V23.5294H105.722L105.489 20.9412C104.093 23.0588 101.766 24 98.5087 24C91.7608 24 87.5724 19.2941 87.5724 12C87.5724 4.70588 92.2262 0 99.2068 0C104.326 0 108.514 2.58824 109.445 7.52941H104.326Z" fill="white"/>
<path fill-rule="evenodd" clip-rule="evenodd" d="M113.866 23.5291H119.218V0.470313H113.866V23.5291Z" fill="white"/>
<path fill-rule="evenodd" clip-rule="evenodd" d="M128.525 23.5291V14.8233H132.481L137.367 23.5291H143.65L138.065 13.8821C140.625 12.9409 142.487 11.0585 142.487 7.52914C142.487 1.88208 138.065 0.470313 132.016 0.470313H123.174V23.5291H128.525ZM132.016 10.1179H128.525V4.94141H132.016C134.575 4.94141 136.437 5.412 136.437 7.52964C136.437 9.64729 134.575 10.1179 132.016 10.1179Z" fill="white"/>
<path fill-rule="evenodd" clip-rule="evenodd" d="M156.215 0C149.234 0 144.348 4.70588 144.348 12C144.348 19.2941 149.234 24 156.215 24C163.196 24 168.082 19.2941 168.082 12C168.082 4.70588 163.196 0 156.215 0ZM156.448 4.47031C159.705 4.47031 162.497 7.05855 162.497 11.9997C162.497 16.9409 159.705 19.5291 156.448 19.5291C153.19 19.5291 150.398 16.9409 150.398 11.9997C150.398 7.05855 153.19 4.47031 156.448 4.47031Z" fill="white"/>
<path fill-rule="evenodd" clip-rule="evenodd" d="M0.0820312 9.64678H38.2427V0.470313H0.0820312V9.64678Z" fill="white"/>
<path fill-rule="evenodd" clip-rule="evenodd" d="M0.0820312 23.5297H38.2427V14.118H0.0820312V23.5297Z" fill="white"/>
</svg>
