<svg width="115" height="28" viewBox="0 0 115 28" fill="none" xmlns="http://www.w3.org/2000/svg">
<path d="M7.5459 22.2083H0.306641L6.11998 2.01775H20.9641L19.5565 6.81144H11.9699L11.001 10.2508H18.5693L17.3079 14.6524H9.72133L7.5459 22.2083Z" fill="white"/>
<path d="M24.3278 22.2083H17.1617L21.4029 7.45298H28.569L24.3278 22.2083ZM28.9529 6.04517H21.7868L22.9568 2.01775H30.1229L28.9529 6.04517Z" fill="white"/>
<path d="M42.9012 22.2084H35.8813L36.3749 20.5511C34.9673 21.7094 33.5231 22.547 31.2197 22.547C28.8797 22.547 27.4173 21.4599 27.4173 19.1611C27.4173 16.6128 28.441 12.8348 29.9766 10.1796C31.0917 8.20151 33.0844 7.16792 35.4426 7.16792C37.4718 7.16792 38.9708 8.04112 39.5558 9.11035L41.5484 2H48.7146L42.9012 22.2084ZM37.5266 11.8369C36.8868 11.8369 36.247 12.0329 35.8813 12.8883C35.3512 14.1357 34.8759 15.3475 34.8759 16.5771C34.8759 17.1474 35.2963 17.6285 35.991 17.6285C36.5395 17.6285 36.9051 17.4681 37.2158 17.2721L38.66 12.4249C38.4041 12.0864 37.9654 11.8369 37.5266 11.8369Z" fill="white"/>
<path d="M63.1383 15.7751H53.2483C53.0472 16.5592 52.8644 17.0938 52.8644 17.7175C52.8644 18.0205 52.9192 18.769 53.9247 18.769C54.9301 18.769 55.3689 18.3947 55.7893 16.9513H62.8092C61.9135 21.1391 56.8131 22.5825 53.6688 22.5825C49.4276 22.5825 46.1187 21.9944 46.1187 18.0027C46.1187 15.8108 47.2521 12.1754 48.7512 10.2686C50.561 7.96977 53.687 7.09657 56.5754 7.09657C61.0177 7.09657 63.9061 7.9876 63.9061 11.6764C63.9061 12.5674 63.5222 14.5455 63.1383 15.7751ZM55.9722 10.821C55.0764 10.821 54.4731 11.4091 54.0892 12.906H57.0324C57.1239 12.6031 57.2335 12.1398 57.2335 11.8724C57.2153 11.0527 56.7217 10.821 55.9722 10.821Z" fill="white"/>
<path d="M70.341 22.2083H63.1748L68.9699 2.01775H76.136L70.341 22.2083Z" fill="white"/>
<path d="M79.7922 22.2083H72.6261L76.8673 7.45298H84.0334L79.7922 22.2083ZM84.4356 6.04517H77.2695L78.4394 2.01775H85.6056L84.4356 6.04517Z" fill="white"/>
<path d="M97.3054 7.45301L97.9269 10.7854H92.4426L90.8339 16.381C90.6876 16.8087 90.578 17.3612 90.578 17.6998C90.578 18.3413 90.8522 18.573 91.8211 18.573H93.3567L92.2964 22.2083H85.9163C83.814 22.2083 83.0096 21.2104 83.0096 19.6956C83.0096 19.0719 83.1011 18.3948 83.3204 17.6463L87.2143 4.19188H94.3804L93.4298 7.47083H97.3054V7.45301Z" fill="white"/>
<path d="M106.976 7.45305L103.082 15.6326L103.192 7.45305H95.9526L97.3419 22.2084C97.1591 23.0637 96.8666 23.5627 96.3182 23.7944C95.7149 24.0617 94.3438 24.0082 93.8503 23.9904H93.7588L92.6071 28H97.5064C100.395 28 101.802 26.5922 103.868 23.438L114.307 7.43523H106.976V7.45305Z" fill="white"/>
</svg>
