<svg width="128" height="30" viewBox="0 0 128 30" fill="none" xmlns="http://www.w3.org/2000/svg">
<path fill-rule="evenodd" clip-rule="evenodd" d="M9.08071 15.0028L17.5146 23.2971L22.8381 18.0625C23.79 17.2197 25.2464 17.2572 26.1521 18.1479C27.0579 19.0385 27.096 20.4705 26.2389 21.4065L19.2137 28.3156C18.27 29.2281 16.7566 29.2281 15.8129 28.3156L5.67733 18.3468V24.272C5.67733 25.5797 4.59923 26.6398 3.26933 26.6398C1.93943 26.6398 0.861328 25.5797 0.861328 24.272V5.72595C0.861328 4.41827 1.93943 3.35818 3.26933 3.35818C4.59923 3.35818 5.67733 4.41827 5.67733 5.72595V11.6512L15.8116 1.68492C16.755 0.771693 18.269 0.771693 19.2124 1.68492L26.2428 8.59274C27.0999 9.52875 27.0618 10.9607 26.156 11.8514C25.2503 12.742 23.794 12.7795 22.842 11.9367L17.5185 6.70213L9.08071 15.0028ZM17.5185 12.6325C16.5434 12.632 15.664 13.2092 15.2905 14.0948C14.917 14.9805 15.1229 16.0003 15.8122 16.6785C16.5015 17.3566 17.5385 17.5597 18.4394 17.1929C19.3404 16.8261 19.9278 15.9617 19.9278 15.0028C19.9282 14.3742 19.6745 13.7711 19.2227 13.3264C18.7709 12.8816 18.1579 12.6315 17.5185 12.6312V12.6325Z" fill="white"/>
<path d="M99.7138 15.0047C99.7138 14.2385 99.7138 13.5178 99.6889 12.8523C99.6721 12.2244 99.6099 11.5985 99.5029 10.9796C99.4029 10.4144 99.2262 9.86547 98.9779 9.34801C98.7157 8.81448 98.3654 8.32903 97.9417 7.91213C97.3407 7.29634 96.6255 6.80349 95.8361 6.4611C94.9821 6.11517 94.0675 5.94369 93.1462 5.95675C92.2214 5.9448 91.3035 6.11622 90.4453 6.4611C89.6514 6.79881 88.9317 7.28952 88.3273 7.90524C87.9044 8.32189 87.5554 8.80744 87.2952 9.34112C87.049 9.8587 86.8751 10.4077 86.7785 10.9727C86.6739 11.5918 86.6141 12.2176 86.5993 12.8454C86.5828 13.5109 86.5745 14.2316 86.5787 14.9978C86.5828 15.764 86.5787 16.4792 86.5993 17.1489C86.6141 17.7766 86.6739 18.4024 86.7785 19.0216C86.8751 19.5865 87.049 20.1355 87.2952 20.6531C87.5564 21.1862 87.9053 21.6716 88.3273 22.089C88.9307 22.7052 89.6507 23.1952 90.4453 23.5304C91.3029 23.8775 92.2211 24.0499 93.1462 24.0375C94.0678 24.0511 94.9827 23.8786 95.8361 23.5304C96.6256 23.1925 97.341 22.7028 97.9417 22.089C98.3645 21.6713 98.7147 21.186 98.9779 20.6531C99.2262 20.1357 99.4029 19.5867 99.5029 19.0216C99.6087 18.4044 99.67 17.7804 99.6862 17.1544C99.7069 16.4847 99.7165 15.7681 99.711 15.0033L99.7138 15.0047ZM96.2412 15.0047C96.2412 15.8535 96.2288 16.5605 96.1999 17.1227C96.1836 17.5845 96.1376 18.0448 96.0621 18.5007C96.0104 18.8044 95.9177 19.0997 95.7865 19.3785C95.6799 19.6031 95.5406 19.8107 95.3731 19.9944C95.1144 20.2905 94.7935 20.5258 94.4333 20.6834C94.0279 20.8569 93.5912 20.9451 93.1503 20.9426C92.7073 20.9445 92.2685 20.8563 91.8605 20.6834C91.4915 20.5288 91.1619 20.2933 90.8959 19.9944C90.7273 19.8116 90.5879 19.6038 90.4825 19.3785C90.355 19.0994 90.2668 18.804 90.2207 18.5007C90.1471 18.0445 90.1011 17.5844 90.0829 17.1227C90.0581 16.5605 90.0457 15.8545 90.0457 15.0047C90.0457 14.1558 90.0581 13.4476 90.0829 12.8853C90.1012 12.4237 90.1472 11.9635 90.2207 11.5073C90.2668 11.204 90.355 10.9086 90.4825 10.6295C90.5882 10.4044 90.7276 10.1967 90.8959 10.0136C91.1623 9.71511 91.4918 9.47974 91.8605 9.32458C92.2679 9.14974 92.7071 9.06152 93.1503 9.06552C93.5914 9.06094 94.0285 9.1492 94.4333 9.32458C94.7932 9.48266 95.114 9.71787 95.3731 10.0136C95.5403 10.1975 95.6796 10.4051 95.7865 10.6295C95.9177 10.9083 96.0104 11.2036 96.0621 11.5073C96.1375 11.9632 96.1835 12.4235 96.1999 12.8853C96.2302 13.4462 96.2412 14.1545 96.2412 15.0047Z" fill="white"/>
<path d="M127.384 6.4167C127.383 6.24914 127.247 6.11366 127.08 6.11217H124.215C124.047 6.11292 123.911 6.24883 123.91 6.4167V16.9997L116.924 6.1976C116.877 6.12457 116.835 6.11217 116.732 6.11217H114.075C113.908 6.11439 113.773 6.24944 113.771 6.4167V23.5893C113.773 23.7564 113.908 23.891 114.075 23.8925H116.939C117.106 23.8917 117.241 23.7565 117.242 23.5893V12.9787L124.23 23.8057C124.278 23.8787 124.317 23.8911 124.421 23.8911H127.077C127.244 23.8904 127.38 23.7553 127.381 23.588L127.384 6.4167Z" fill="white"/>
<path d="M108.18 6.4167C108.179 6.24883 108.044 6.11292 107.876 6.11217H105.014C104.846 6.11292 104.71 6.24883 104.709 6.4167V23.588C104.71 23.7558 104.846 23.8917 105.014 23.8925H107.876C108.044 23.8917 108.179 23.7558 108.18 23.588V6.4167Z" fill="white"/>
<path d="M73.9177 15.0046C73.9177 14.1503 73.9274 13.4392 73.9522 12.8729C73.969 12.4111 74.015 11.9508 74.09 11.4949C74.3545 9.96527 75.5258 9.06268 77.021 9.06268C77.9966 9.07095 78.8813 9.43199 79.4463 10.2533C79.7021 10.6367 79.8887 11.0621 79.9975 11.51C80.0058 11.5572 80.0489 11.5901 80.0967 11.5858H83.4659C83.5141 11.5858 83.532 11.5527 83.5238 11.5059C83.1558 9.42096 82.0438 7.54826 80.0788 6.62087C79.113 6.17372 78.0589 5.94999 76.9948 5.96632C75.0977 5.96632 73.4997 6.61581 72.2007 7.91481C71.4591 8.63761 70.9529 9.56742 70.7483 10.5826C70.5499 11.5821 70.4497 13.0557 70.4479 15.0032C70.4461 16.9508 70.5462 18.4239 70.7483 19.4225C70.9512 20.439 71.4559 21.3707 72.1966 22.0958C73.4947 23.3939 75.0927 24.0429 76.9907 24.0429C78.0546 24.059 79.1086 23.8358 80.0746 23.3897C82.0396 22.4624 83.1517 20.5897 83.5196 18.5047C83.5279 18.4565 83.51 18.4248 83.4618 18.4248H80.0912C80.0432 18.4198 79.9997 18.453 79.9919 18.5006C79.8829 18.948 79.6964 19.3729 79.4407 19.756C78.8758 20.5828 77.9911 20.9397 77.0155 20.9466C75.5203 20.9466 74.349 20.0453 74.0845 18.5158C74.0096 18.0598 73.9636 17.5995 73.9467 17.1378C73.9274 16.5686 73.9177 15.8562 73.9177 15.0046Z" fill="white"/>
<path d="M38.3325 6.4167C38.3318 6.24883 38.1958 6.11292 38.028 6.11217H35.1659C34.998 6.11292 34.8621 6.24883 34.8613 6.4167V23.5893C34.8628 23.7567 34.9985 23.8918 35.1659 23.8927H38.028C38.1953 23.8918 38.331 23.7567 38.3325 23.5893V18.5486L40.6296 15.8023L45.3479 23.8015C45.3842 23.8605 45.4496 23.8953 45.5188 23.8927H48.9969C49.1567 23.8927 49.1856 23.7933 49.1057 23.6569L42.9281 13.1841L48.5959 6.38501C48.7102 6.24721 48.662 6.1163 48.4829 6.1163H44.681C44.6347 6.11358 44.5902 6.13429 44.5624 6.17142L38.3325 13.6429V6.4167Z" fill="white"/>
<path d="M59.184 20.9463C57.5731 20.9463 56.1124 19.4553 56.1124 17.675V6.4167C56.1117 6.24883 55.9758 6.11292 55.8079 6.11217H52.9458C52.7779 6.11292 52.642 6.24883 52.6412 6.4167V17.6309C52.6412 21.5513 55.5736 24.0427 59.184 24.0427C62.7943 24.0427 65.7267 21.5513 65.7267 17.6309V6.4167C65.7252 6.24914 65.5898 6.11366 65.4222 6.11217H62.5587C62.3914 6.11367 62.2563 6.24936 62.2555 6.4167V17.675C62.2555 19.454 60.7935 20.9463 59.184 20.9463Z" fill="white"/>
</svg>
