<svg width="179" height="26" viewBox="0 0 179 26" fill="none" xmlns="http://www.w3.org/2000/svg">
<path d="M154.515 12.0296C155.214 12.3759 155.9 12.7158 156.546 13.1528C158.221 14.289 158.75 15.9496 158.486 17.7851C158.133 19.6642 156.458 21.4997 153.196 21.4997C151.918 21.4997 150.728 21.1501 149.626 20.3197C148.48 19.4457 148.039 18.4843 148.039 16.78C148.039 16.7363 148.083 16.6926 148.127 16.6926H150.507C150.552 16.6926 150.596 16.7363 150.596 16.78C150.596 16.9548 150.64 17.3044 150.684 17.4792C151.036 18.4843 151.962 19.1398 153.196 19.2272C154.298 19.3146 155.4 18.7028 155.841 17.8288C156.282 16.8674 155.973 15.6437 154.871 14.9882C154.15 14.5308 152.58 13.7179 151.482 13.1493L151.477 13.1468C150.899 12.8475 150.453 12.6163 150.331 12.541C147.202 10.6181 147.73 4.5 153.549 4.5C154.695 4.5 155.753 4.8496 156.678 5.54882C157.648 6.29173 158.177 7.42796 158.309 8.78269C158.309 8.82639 158.265 8.87009 158.221 8.87009H156.017C155.973 8.87009 155.929 8.82639 155.929 8.78269C155.665 6.81615 153.24 6.29174 151.786 7.25316C150.728 7.95237 150.552 9.52561 151.521 10.3122C152.035 10.7432 152.655 11.0688 153.254 11.3835C153.323 11.4198 153.392 11.456 153.461 11.4921C153.813 11.6815 154.166 11.8564 154.515 12.0296Z" fill="white"/>
<path d="M54.0626 4.84952C54.1067 4.84952 54.1508 4.89322 54.1508 4.93692V21.3248C54.1508 21.3685 54.1067 21.4122 54.0626 21.4122H51.6824C51.6383 21.4122 51.5942 21.3685 51.5942 21.3248V8.87001C51.5942 8.7389 51.462 8.7389 51.4179 8.8263L49.4343 15.294L49.3021 15.7311C49.3021 15.7311 49.258 15.7748 49.214 15.7748H47.3626C47.3186 15.7748 47.2745 15.7748 47.2745 15.7311L47.1422 15.294L45.1587 8.8263C45.1146 8.7389 44.9824 8.7826 44.9824 8.87001V21.3248C44.9824 21.3685 44.9383 21.4122 44.8942 21.4122H42.5139C42.4699 21.4122 42.4258 21.3685 42.4258 21.3248V4.93692C42.4258 4.89322 42.4699 4.84952 42.5139 4.84952H46.1284C46.1725 4.84952 46.2166 4.84952 46.2166 4.89322L48.2001 11.3173C48.2442 11.4047 48.3324 11.4047 48.3764 11.3173L50.36 4.89322C50.36 4.89322 50.4041 4.84952 50.4482 4.84952H54.0626Z" fill="white"/>
<path d="M119.917 4.84952C119.873 4.84952 119.829 4.89322 119.829 4.89322L117.845 11.3173C117.801 11.4047 117.713 11.4047 117.669 11.3173L115.685 4.89322C115.685 4.84952 115.641 4.84952 115.597 4.84952H111.939C111.895 4.84952 111.85 4.89322 111.85 4.93692V21.3248C111.85 21.3685 111.895 21.4122 111.939 21.4122H114.319C114.363 21.4122 114.407 21.3685 114.407 21.3248V8.87001C114.407 8.7826 114.539 8.7389 114.583 8.8263L116.567 15.294L116.699 15.7311C116.699 15.7748 116.743 15.7748 116.787 15.7748H118.639C118.683 15.7748 118.727 15.7311 118.727 15.7311L118.859 15.294L120.843 8.8263C120.887 8.7389 121.019 8.7389 121.019 8.87001V21.3248C121.019 21.3685 121.063 21.4122 121.107 21.4122H123.487C123.531 21.4122 123.575 21.3685 123.575 21.3248V4.93692C123.575 4.89322 123.531 4.84952 123.487 4.84952H119.917Z" fill="white"/>
<path d="M89.0616 4.84952C89.1057 4.84952 89.1497 4.89322 89.1056 4.93692V6.99086C89.1056 7.03457 89.0616 7.07826 89.0175 7.07826H84.6537V21.3248C84.6537 21.3685 84.6096 21.4122 84.5655 21.4122H82.1853C82.1412 21.4122 82.0971 21.3685 82.0971 21.3248V7.07826H77.7333C77.6892 7.07826 77.6451 7.03457 77.6451 6.99086V4.93692C77.6451 4.89322 77.6892 4.84952 77.7333 4.84952H89.0616Z" fill="white"/>
<path fill-rule="evenodd" clip-rule="evenodd" d="M103.167 21.4126H105.327C105.371 21.4126 105.415 21.3689 105.415 21.2815L100.919 4.84995C100.919 4.80625 100.875 4.80625 100.831 4.80625H97.7011C97.657 4.80625 97.6129 4.84995 97.6129 4.84995L93.1168 21.2815C93.1168 21.3252 93.1609 21.4126 93.205 21.4126H95.3649C95.4089 21.4126 95.453 21.3689 95.453 21.3689L96.7754 16.5618C96.7754 16.5181 96.8195 16.5181 96.8636 16.5181H101.668C101.712 16.5181 101.756 16.5618 101.756 16.5618L103.079 21.3689C103.079 21.3689 103.123 21.4126 103.167 21.4126ZM97.4366 14.1582L99.1997 7.73421C99.2438 7.64681 99.332 7.64681 99.3761 7.73421L101.139 14.1582C101.139 14.2019 101.095 14.2893 101.051 14.2893H97.5688C97.4807 14.2893 97.4366 14.2019 97.4366 14.1582Z" fill="white"/>
<path fill-rule="evenodd" clip-rule="evenodd" d="M142.441 21.4126H140.281C140.237 21.4126 140.193 21.3689 140.193 21.3689L138.87 16.5618C138.87 16.5618 138.826 16.5181 138.782 16.5181H133.978C133.934 16.5181 133.89 16.5181 133.89 16.5618L132.567 21.3689C132.567 21.3689 132.523 21.4126 132.479 21.4126H130.319C130.275 21.4126 130.231 21.3252 130.231 21.2815L134.727 4.84995C134.727 4.84995 134.771 4.80625 134.815 4.80625H137.945C137.989 4.80625 138.033 4.80625 138.033 4.84995L142.529 21.2815C142.529 21.3689 142.485 21.4126 142.441 21.4126ZM136.314 7.73421L134.551 14.1582C134.551 14.2019 134.595 14.2893 134.683 14.2893H138.165C138.209 14.2893 138.253 14.2019 138.253 14.1582L136.49 7.73421C136.446 7.64681 136.358 7.64681 136.314 7.73421Z" fill="white"/>
<path d="M63.848 18.9649V13.8956C63.848 13.8519 63.8921 13.8082 63.9362 13.8082H70.3277C70.3717 13.8082 70.4158 13.7645 70.4158 13.7208V11.6669C70.4158 11.6232 70.3717 11.5795 70.3277 11.5795H63.9362C63.8921 11.5795 63.848 11.5358 63.848 11.4921V7.16567C63.848 7.12196 63.8921 7.07826 63.9362 7.07826H71.1652C71.2092 7.07826 71.2533 7.03457 71.2533 6.99086V4.93692C71.2533 4.89322 71.2092 4.84952 71.1652 4.84952H61.3796C61.3355 4.84952 61.2915 4.89322 61.2915 4.93692V21.3248C61.2915 21.3685 61.3355 21.4122 61.3796 21.4122H71.4737C71.5178 21.4122 71.5619 21.3685 71.5619 21.3248V19.1834C71.5619 19.1397 71.5178 19.096 71.4737 19.096H63.8921C63.8921 19.0742 63.8811 19.0523 63.8701 19.0305C63.8591 19.0086 63.848 18.9868 63.848 18.9649Z" fill="white"/>
<path d="M170.122 12.7598L178.409 21.2378C178.453 21.2815 178.409 21.4126 178.277 21.5H175.236L175.192 21.4563L168.051 14.1145C168.007 14.0271 167.918 14.0708 167.918 14.1582V21.3689C167.918 21.4126 167.874 21.4563 167.83 21.4563H165.45C165.406 21.4563 165.362 21.4126 165.362 21.3689V4.98105C165.362 4.93735 165.406 4.89365 165.45 4.89365H167.874C167.918 4.89365 167.963 4.93735 167.963 4.98105V11.3614C167.963 11.4051 168.051 11.4488 168.095 11.4051L174.442 4.84995C174.442 4.80625 174.442 4.80625 174.486 4.80625H177.528C177.572 4.80625 177.616 4.89365 177.572 4.93735L170.122 12.6287C170.078 12.6724 170.078 12.7161 170.122 12.7598Z" fill="white"/>
<path d="M27.5517 0L16.2414 8.1333L18.3448 3.33332L27.5517 0Z" fill="#969596"/>
<path d="M1.41362 0L12.655 8.19996L10.655 3.33332L1.41362 0Z" fill="#939495"/>
<path d="M23.4826 18.8332L20.4481 23.2999L26.9309 25.0332L28.7585 18.9332L23.4826 18.8332Z" fill="#939495"/>
<path d="M0.241244 18.9332L2.06883 25.0332L8.51709 23.2999L5.51709 18.8332L0.241244 18.9332Z" fill="#939495"/>
<path d="M8.17219 11.2998L6.37909 13.9331L12.7584 14.1998L12.5515 7.53317L8.17219 11.2998Z" fill="#939495"/>
<path d="M20.8274 11.3001L16.3791 7.46676L16.2412 14.2001L22.6205 13.9334L20.8274 11.3001Z" fill="#939495"/>
<path d="M8.51709 23.2999L12.3791 21.5L9.03433 18.9667L8.51709 23.2999Z" fill="#939495"/>
<path d="M16.6205 21.5L20.4481 23.2999L19.9309 18.9667L16.6205 21.5Z" fill="#939495"/>
<path d="M20.4481 23.2999L16.6205 21.5L16.9311 23.9L16.8966 24.9333L20.4481 23.2999Z" fill="#C4C3C4"/>
<path d="M8.51709 23.2999L12.1035 24.9332L12.069 23.8999L12.3791 21.5L8.51709 23.2999Z" fill="#C4C3C4"/>
<path d="M12.1724 17.3667L8.9655 16.4667L11.2069 15.4667L12.1724 17.3667Z" fill="black"/>
<path d="M16.8275 17.3667L17.7585 15.4667L20.0344 16.4667L16.8275 17.3667Z" fill="black"/>
<path d="M8.51709 23.2999L9.06898 18.833L5.51726 18.933L8.51709 23.2999Z" fill="#828282"/>
<path d="M19.931 18.833L20.4481 23.2999L23.4827 18.933L19.931 18.833Z" fill="#828282"/>
<path d="M22.6205 13.9334L16.2412 14.2001L16.8275 17.3667L17.7585 15.4667L20.0344 16.4667L22.6205 13.9334Z" fill="#828282"/>
<path d="M8.9655 16.4667L11.2069 15.4667L12.1724 17.3667L12.7584 14.1998L6.37909 13.9331L8.9655 16.4667Z" fill="#828282"/>
<path d="M6.37909 13.9331L9.03433 18.9667L8.9655 16.4667L6.37909 13.9331Z" fill="#949594"/>
<path d="M20.0344 16.4667L19.9309 18.9667L22.6205 13.9334L20.0344 16.4667Z" fill="#949594"/>
<path d="M12.7584 14.1998L12.1724 17.3667L12.8966 21.1328L13.069 16.1662L12.7584 14.1998Z" fill="#949594"/>
<path d="M16.2412 14.2001L15.9312 16.1662L16.0691 21.1328L16.8275 17.3667L16.2412 14.2001Z" fill="#949594"/>
<path d="M16.8275 17.3667L16.0691 21.1328L16.6205 21.5L19.9309 18.9667L20.0344 16.4667L16.8275 17.3667Z" fill="#A4A4A3"/>
<path d="M8.9655 16.4667L9.03433 18.9667L12.3791 21.5L12.8966 21.1328L12.1724 17.3667L8.9655 16.4667Z" fill="#A4A4A3"/>
<path d="M16.8966 24.9333L16.9311 23.9L16.6207 23.6667H12.3449L12.069 23.8999L12.1035 24.9332L8.51709 23.2999L9.75867 24.3L12.3104 26H16.6552L19.2069 24.3L20.4481 23.2999L16.8966 24.9333Z" fill="#B0B1B0"/>
<path d="M16.6205 21.5L16.0691 21.1328H12.8966L12.3791 21.5L12.069 23.8999L12.3449 23.6667H16.6207L16.9311 23.9L16.6205 21.5Z" fill="#161616"/>
<path d="M28.0345 8.66662L29 4.16665L27.5517 0L16.6207 7.86663L20.8274 11.3001L26.7586 12.9666L28.069 11.4999L27.5172 11.0999L28.4138 10.3L27.7241 9.76662L28.6207 9.09996L28.0345 8.66662Z" fill="#4E4E4E"/>
<path d="M0 4.16665L0.965513 8.66662L0.344827 9.09996L1.24138 9.76662L0.551722 10.3L1.48275 11.0999L0.896549 11.4999L2.20689 12.9666L8.17219 11.2998L12.3793 7.86663L1.41362 0L0 4.16665Z" fill="#5E5D5D"/>
<path d="M26.7586 12.9666L20.8274 11.3001L22.6205 13.9334L19.9309 18.9667L23.4827 18.933L28.7585 18.9332L26.7586 12.9666Z" fill="#A4A4A3"/>
<path d="M8.17219 11.2998L2.20689 12.9666L0.241244 18.9332L5.51726 18.933L9.03433 18.9667L6.37909 13.9331L8.17219 11.2998Z" fill="#A4A4A3"/>
<path d="M16.2412 14.2001L16.6207 7.86663L18.3448 3.33332H10.655L12.3793 7.86663L12.7584 14.1998L12.8965 16.1999L12.8966 21.1328H16.0691L16.0689 16.1999L16.2412 14.2001Z" fill="#A4A4A3"/>
</svg>
