<svg width="179" height="31" viewBox="0 0 179 31" fill="none" xmlns="http://www.w3.org/2000/svg">
<path d="M37.215 2.5V26.995H40.1834V25.2836H40.2511C41.3854 26.5924 43.455 27.5 45.2566 27.5C49.9275 27.5 52.9288 23.8081 52.9288 18.1034C52.9288 12.5665 49.7924 8.70682 45.3216 8.70682C43.5534 8.70682 41.6868 9.58089 40.519 10.9232H40.4514V2.5H37.215ZM55.4653 2.5V5.95667H58.9671V2.5H55.4653ZM80.2874 2.5V26.995H83.5238V15.8216C83.5238 13.4055 85.2591 11.7265 87.728 11.7265C90.1636 11.7265 91.5654 13.3373 91.5654 16.1226V26.995H94.8018V15.3192C94.8018 11.2588 92.3657 8.70682 88.4955 8.70682C86.527 8.70682 84.5256 9.64631 83.5915 10.9886H83.5238V2.5H80.2874ZM145.848 2.5V10.9232H145.781C144.613 9.54733 142.777 8.70682 141.009 8.70682C136.538 8.70682 133.368 12.6336 133.368 18.1034C133.368 23.8081 136.372 27.5 141.043 27.5C142.845 27.5 144.912 26.5924 146.046 25.2836H146.114V26.995H149.082V2.5H145.848ZM0.0820312 3.50743V26.995H3.41731V17.7004H8.18868C11.8587 17.7004 13.1942 19.1774 13.1942 23.2714V26.995H16.4306V23.2714C16.4306 19.5217 15.2924 17.2954 12.8222 16.379C15.3545 15.4867 17.0966 13.3865 17.0966 10.3187C17.0966 6.15763 14.0259 3.50743 9.22153 3.50743H0.0820312ZM3.41731 6.56112H8.92234C12.0919 6.56112 13.7275 7.93552 13.7275 10.6537C13.7275 13.2711 12.059 14.7148 8.95616 14.7148H3.41731V6.56112ZM26.7044 8.70682C21.9001 8.70682 18.5978 12.5665 18.5978 18.1034C18.5978 23.7746 21.8 27.5 26.7044 27.5C31.5422 27.5 34.7122 23.7746 34.7122 18.1034C34.7122 12.5665 31.4421 8.70682 26.7044 8.70682ZM70.5781 8.70682C68.7098 8.70682 66.7093 9.61445 65.7417 10.9232H65.6741V9.21184H62.5053V26.995H65.7417V15.8216C65.7417 13.3049 67.3769 11.7265 69.9459 11.7265C72.4816 11.7265 73.6819 13.2054 73.6819 16.2926V26.995H76.9521V15.3506C76.9521 11.2567 74.4817 8.70682 70.5781 8.70682ZM105.242 8.70682C100.438 8.70682 97.1355 12.5665 97.1355 18.1034C97.1355 23.7746 100.338 27.5 105.242 27.5C110.08 27.5 113.25 23.7746 113.25 18.1034C113.25 12.5665 109.98 8.70682 105.242 8.70682ZM123.36 8.70682C118.555 8.70682 115.253 12.5665 115.253 18.1034C115.253 23.7746 118.455 27.5 123.36 27.5C128.198 27.5 131.368 23.7746 131.368 18.1034C131.368 12.5665 128.097 8.70682 123.36 8.70682ZM55.598 9.21184V26.995H58.8344V9.21184H55.598ZM26.7044 11.6951C29.6404 11.6951 31.5096 14.2108 31.5096 18.1034C31.5096 22.0296 29.6404 24.5457 26.7044 24.5457C23.6683 24.5457 21.8004 22.0631 21.8004 18.1034C21.8004 14.1437 23.6683 11.6951 26.7044 11.6951ZM44.7545 11.6951C47.924 11.6951 49.6923 14.0094 49.6923 18.1034C49.6923 22.2309 47.924 24.5457 44.7545 24.5457C42.3189 24.5457 40.4514 22.8695 40.4514 20.6547V15.8897C40.4514 13.5071 42.3189 11.6951 44.7545 11.6951ZM105.242 11.6951C108.178 11.6951 110.047 14.2108 110.047 18.1034C110.047 22.0296 108.178 24.5457 105.242 24.5457C102.206 24.5457 100.338 22.0631 100.338 18.1034C100.338 14.1437 102.206 11.6951 105.242 11.6951ZM123.36 11.6951C126.296 11.6951 128.165 14.2108 128.165 18.1034C128.165 22.0296 126.296 24.5457 123.36 24.5457C120.324 24.5457 118.456 22.0631 118.456 18.1034C118.456 14.1437 120.324 11.6951 123.36 11.6951ZM141.543 11.6951C143.978 11.6951 145.848 13.5071 145.848 15.8897V20.6547C145.848 22.8695 143.978 24.5457 141.543 24.5457C138.373 24.5457 136.605 22.2309 136.605 18.1034C136.605 14.0094 138.373 11.6951 141.543 11.6951Z" fill="white"/>
<path d="M174.339 0.00179777C173.106 -0.0246778 171.639 0.24144 169.979 0.789146C169.729 0.876527 169.532 1.01456 169.355 1.18921C167.666 2.77501 166.022 4.45615 164.469 6.19424L164.35 6.32617C164.317 6.36354 164.313 6.41922 164.337 6.46236C164.362 6.50605 164.412 6.5286 164.461 6.51771L164.635 6.48154C167.138 5.94639 169.666 5.53558 172.145 5.26432C172.308 5.24635 172.476 5.30224 172.598 5.41328C172.72 5.52545 172.791 5.68546 172.787 5.85166C172.746 8.31209 172.834 10.7847 173.053 13.2017L173.068 13.3592C173.074 13.4075 173.107 13.4464 173.156 13.4592C173.164 13.4614 173.172 13.4636 173.183 13.4636C173.22 13.4641 173.257 13.4468 173.279 13.4146L173.371 13.2848C174.767 11.2919 176.288 9.35448 177.886 7.52225C178.065 7.3184 178.112 7.19018 178.146 7.00515C178.649 3.78443 177.872 1.4025 177.178 0.799944C176.574 0.276795 175.699 0.0310081 174.339 0.00179777ZM170.504 6.52621L170.351 6.54745C167.959 6.87684 165.538 7.33317 163.154 7.90298C162.918 7.96901 162.766 8.12259 162.733 8.15833C160.948 10.2951 159.259 12.5441 157.709 14.8487C157.631 14.9653 157.623 15.2445 157.623 15.2445C157.623 15.2445 158.012 18.2466 158.581 20.4581C157.172 24.5109 155.915 29.851 155.915 29.851C155.905 29.8857 155.911 29.9219 155.932 29.9511C155.953 29.9803 155.987 29.9989 156.023 30H156.825C156.876 30.0008 156.92 29.97 156.938 29.9234L156.994 29.7723C157.812 27.5392 158.745 25.3347 159.777 23.1862C160.017 22.6857 160.524 21.6753 160.524 21.6753C160.607 21.5113 160.996 20.7656 161.084 20.5986L161.098 20.5688C163.696 15.6689 166.862 11.0473 170.506 6.83264L170.606 6.71772C170.637 6.68112 170.644 6.62806 170.621 6.58579C170.597 6.54319 170.551 6.51989 170.504 6.52621ZM171.606 7.44975C171.561 7.43286 171.51 7.4443 171.479 7.48167L171.379 7.59871C167.13 12.5128 163.559 17.967 160.764 23.8097L160.698 23.9459C160.677 23.9891 160.685 24.041 160.717 24.0757C160.74 24.0986 160.769 24.1116 160.8 24.1119C160.815 24.1124 160.833 24.1097 160.847 24.1032L160.988 24.0436C163.374 23.0549 165.812 22.1982 168.234 21.4985C168.378 21.4564 168.499 21.3559 168.568 21.2219C169.629 19.153 172.094 15.1486 172.094 15.1486C172.157 15.0583 172.143 14.923 172.143 14.923C172.143 14.923 171.71 10.1333 171.683 7.70914L171.681 7.55593C171.679 7.50788 171.651 7.46587 171.606 7.44975ZM165.305 23.5352L165.108 23.6033C163.825 24.0296 161.927 24.6848 160.224 25.4674C160.133 25.5102 160.073 25.6291 160.073 25.6291C160.041 25.702 160.003 25.7931 159.958 25.8951L159.951 25.9079C159.761 26.3421 159.496 26.9955 159.383 27.2613L159.296 27.472C159.282 27.5053 159.29 27.5426 159.317 27.5677C159.333 27.5828 159.351 27.5903 159.374 27.5912C159.386 27.5912 159.4 27.589 159.413 27.5824L159.619 27.4846C160.085 27.263 160.676 26.9273 161.294 26.6334L161.315 26.6225C162.491 26.0647 163.818 25.4351 164.618 25.0542C164.618 25.0542 164.747 24.9848 164.812 24.8563L165.409 23.6561C165.425 23.6247 165.421 23.5871 165.399 23.5603C165.374 23.5342 165.339 23.5242 165.305 23.5352Z" fill="white"/>
</svg>
