<svg width="76" height="34" viewBox="0 0 76 34" fill="none" xmlns="http://www.w3.org/2000/svg">
<path d="M63.7551 28.3409C63.5159 27.6134 63.4355 27.0286 63.4355 25.43C63.4355 23.8315 63.5149 23.2456 63.7551 22.5181C64.3303 20.7615 65.7376 19.8594 67.7036 19.8594C69.6211 19.8594 70.9974 20.7615 71.6037 22.3115C71.6519 22.4232 71.6348 22.4872 71.5242 22.5337L69.3984 23.4513C69.2861 23.4989 69.2222 23.4669 69.1735 23.3564C68.8704 22.724 68.4869 22.3437 67.7508 22.3437C67.0643 22.3437 66.6323 22.6764 66.4395 23.2778C66.3281 23.6094 66.2797 23.9422 66.2797 25.4302C66.2797 26.9182 66.328 27.2488 66.4395 27.5816C66.6312 28.1829 67.0632 28.5157 67.7508 28.5157C68.4869 28.5157 68.8694 28.1353 69.1735 27.503C69.2218 27.3913 69.2869 27.3605 69.3984 27.4081L71.5242 28.3257C71.6364 28.3734 71.652 28.4362 71.6037 28.5479C70.9954 30.0979 69.6222 31 67.7036 31C65.7376 31 64.3303 30.0975 63.7551 28.3409ZM58.9375 30.6514V20.2077C58.9375 20.1128 59.0014 20.0487 59.0973 20.0487H61.5922C61.687 20.0487 61.7509 20.1127 61.7509 20.2077V30.6503C61.7509 30.7452 61.6871 30.8097 61.5911 30.8097H59.0963C59.0004 30.8097 58.9375 30.7474 58.9375 30.6514ZM49.8972 30.6514V20.2077C49.8972 20.1128 49.961 20.0487 50.0569 20.0487H52.5518C52.6477 20.0487 52.7116 20.1127 52.7116 20.2077V28.2458C52.7116 28.3087 52.7424 28.3407 52.8075 28.3407H57.4117C57.5076 28.3407 57.5715 28.4036 57.5715 28.4989V30.6502C57.5715 30.7451 57.5076 30.8096 57.4117 30.8096H50.057C49.9611 30.8096 49.8972 30.7474 49.8972 30.6514ZM42.7136 28.6095C42.7136 28.6736 42.7444 28.7044 42.8094 28.7044H44.0878C44.9672 28.7044 45.4146 28.2777 45.4146 27.4862C45.4146 26.7422 44.9672 26.2834 44.0878 26.2834H42.8094C42.7445 26.2834 42.7136 26.3146 42.7136 26.3783V28.6095ZM42.8094 24.3688H43.9435C44.7919 24.3688 45.2394 24.004 45.2394 23.2611C45.2394 22.5016 44.8074 22.1534 43.9445 22.1534H42.8094C42.7445 22.1534 42.7136 22.1846 42.7136 22.2483V24.2736C42.7136 24.3376 42.7444 24.3688 42.8094 24.3688ZM39.8991 30.6514V20.2077C39.8991 20.1128 39.963 20.0487 40.0589 20.0487H44.4878C46.9177 20.0487 48.0363 21.2039 48.0363 22.913C48.0363 24.0207 47.5239 24.7968 46.7095 25.2235V25.2548C47.5095 25.5567 48.2281 26.4575 48.2281 27.7079C48.2281 29.8127 46.7249 30.8099 44.4383 30.8099H40.0578C39.963 30.8099 39.899 30.7474 39.8991 30.6514ZM33.6732 30.9997C31.0361 30.9997 29.3412 29.5118 29.3412 26.6495V20.2089C29.3412 20.114 29.4051 20.0495 29.501 20.0495H31.9959C32.0907 20.0495 32.1547 20.1136 32.1547 20.2089V26.822C32.1547 27.8988 32.7629 28.5167 33.6732 28.5167C34.6165 28.5167 35.1764 27.8988 35.1764 26.822V20.2089C35.1764 20.114 35.2413 20.0495 35.3372 20.0495H37.831C37.9269 20.0495 37.9908 20.1136 37.9908 20.2089V26.6485C37.9908 29.5138 36.264 30.9997 33.6732 30.9997ZM23.7556 24.8608C24.635 24.8608 25.1308 24.37 25.1308 23.626C25.1308 22.882 24.635 22.4077 23.7556 22.4077H22.3174C22.2525 22.4077 22.2215 22.439 22.2215 22.5026V24.7656C22.2215 24.8285 22.2523 24.8605 22.3174 24.8605L23.7556 24.8608ZM22.0607 30.8106H19.5668C19.472 30.8106 19.4081 30.7466 19.4081 30.6517V20.208C19.4081 20.1131 19.4719 20.049 19.5679 20.049H23.9164C26.57 20.049 27.9453 21.537 27.9453 23.6253C27.9453 25.6816 26.5535 27.2171 23.9153 27.2171H22.3174C22.2525 27.2171 22.2215 27.2483 22.2215 27.312V30.6506C22.2215 30.7467 22.1576 30.81 22.0617 30.81L22.0607 30.8106ZM10.3203 30.6525V20.2077C10.3203 20.1128 10.3842 20.0488 10.4801 20.0488H17.5947C17.6905 20.0488 17.7544 20.1128 17.7544 20.2077V22.2485C17.7544 22.3438 17.6906 22.4067 17.5947 22.4067H13.2307C13.1657 22.4067 13.1348 22.4379 13.1348 22.5016V24.1311C13.1348 24.1951 13.1656 24.226 13.2307 24.226H16.8111C16.907 24.226 16.9719 24.29 16.9719 24.3849V26.3782C16.9719 26.4723 16.907 26.5364 16.8111 26.5364H13.2307C13.1657 26.5364 13.1348 26.5676 13.1348 26.6313V28.3569C13.1348 28.419 13.1656 28.451 13.2307 28.451H17.5947C17.6905 28.451 17.7544 28.515 17.7544 28.6092V30.65C17.7544 30.7449 17.6906 30.8093 17.5947 30.8093H10.4801C10.3842 30.8093 10.3203 30.7472 10.3203 30.6511L10.3203 30.6525ZM4.49448 24.6861C5.29346 24.6861 5.77284 24.2418 5.77284 23.5464C5.77284 22.8499 5.29346 22.4066 4.49448 22.4066H2.99137C2.92747 22.4066 2.89548 22.4379 2.89548 22.5015V24.5888C2.89548 24.6528 2.92626 24.6849 2.99137 24.6849H4.49448V24.6861ZM8.6832 30.8095H5.91718C5.77285 30.8095 5.72543 30.7619 5.67696 30.6502L4.03055 26.9799H2.99135C2.92745 26.9799 2.89547 27.0111 2.89547 27.0748V30.65C2.89547 30.7449 2.83156 30.8094 2.73567 30.8094H0.241823C0.145931 30.8094 0.0820312 30.7454 0.0820312 30.65V20.2074C0.0820312 20.1125 0.145931 20.0484 0.241823 20.0484H4.67075C7.16563 20.0484 8.58833 21.4888 8.58833 23.5141C8.58833 24.8595 7.94811 25.9507 6.79655 26.5211L8.79555 30.6192C8.84195 30.7141 8.79453 30.8095 8.6832 30.8095ZM41.4836 17.7361V7.29236C41.4836 7.19746 41.5475 7.1334 41.6434 7.1334H48.758C48.8539 7.1334 48.9178 7.19743 48.9178 7.29236V9.33318C48.9178 9.42808 48.8539 9.49136 48.758 9.49136H44.394C44.329 9.49136 44.2981 9.52261 44.2981 9.58626V11.2158C44.2981 11.2798 44.3289 11.3107 44.394 11.3107H47.9744C48.0703 11.3107 48.1353 11.3747 48.1353 11.47V13.4643C48.1353 13.5585 48.0704 13.6225 47.9744 13.6225H44.394C44.329 13.6225 44.2981 13.6537 44.2981 13.7174V15.443C44.2981 15.5052 44.3289 15.5359 44.394 15.5359H48.758C48.8539 15.5359 48.9178 15.6012 48.9178 15.6953V17.7361C48.9178 17.831 48.8539 17.8954 48.758 17.8954H41.6434C41.5475 17.8945 41.4836 17.8314 41.4836 17.7361ZM34.0268 15.3315C34.0268 15.3944 34.0588 15.4257 34.1227 15.4257H34.9702C35.9619 15.4257 36.5052 15.157 36.7609 14.3975C36.8568 14.0804 36.9207 13.7176 36.9207 12.5148C36.9207 11.312 36.8568 10.9473 36.7609 10.6311C36.5052 9.87059 35.9619 9.60295 34.9702 9.60295H34.1227C34.0589 9.60295 34.0268 9.6342 34.0268 9.69708V15.3315ZM31.2134 17.7361V7.29236C31.2134 7.19746 31.2783 7.1334 31.3742 7.1334H35.5784C37.4959 7.1334 38.9032 7.92492 39.4475 9.58649C39.6712 10.2829 39.7671 10.8843 39.7671 12.5138C39.7671 14.1269 39.6712 14.7458 39.4475 15.4402C38.9032 17.1018 37.4959 17.8933 35.5784 17.8933H31.3742C31.2783 17.8933 31.2134 17.8309 31.2134 17.7361ZM23.7112 13.764H25.8205L24.8133 10.4089H24.7648L23.7112 13.764ZM19.538 17.7361L23.2947 7.29342C23.3255 7.19851 23.3906 7.13407 23.503 7.13407H26.1092C26.2216 7.13407 26.2855 7.1981 26.3175 7.29342L29.9938 17.7361C30.0258 17.831 29.9782 17.895 29.8825 17.895H27.2433C27.1319 17.895 27.068 17.831 27.036 17.7361L26.5247 16.0745H22.9896L22.4782 17.7361C22.4463 17.831 22.3823 17.895 22.27 17.895H19.6483C19.5524 17.8941 19.504 17.831 19.5369 17.7361H19.538ZM14.4317 11.7708C15.2307 11.7708 15.7101 11.3264 15.7101 10.631C15.7101 9.93454 15.2307 9.49127 14.4317 9.49127H12.9276C12.8626 9.49127 12.8317 9.52253 12.8317 9.58618V11.6735C12.8317 11.7375 12.8625 11.7695 12.9276 11.7695H14.4307L14.4317 11.7708ZM18.6204 17.8942H15.8544C15.7101 17.8942 15.6627 17.8465 15.6153 17.7348L13.9678 14.0645H12.9297C12.8647 14.0645 12.8338 14.0957 12.8338 14.1594V17.7346C12.8338 17.8295 12.7688 17.894 12.6729 17.894H10.178C10.0821 17.894 10.0182 17.8299 10.0182 17.7346V7.29197C10.0182 7.19707 10.0821 7.13303 10.178 7.13303H14.607C17.1018 7.13303 18.5235 8.57346 18.5235 10.5998C18.5235 11.9451 17.8843 13.0363 16.7328 13.6067L18.7318 17.7048C18.7792 17.7978 18.7318 17.8938 18.6184 17.8938L18.6204 17.8942ZM5.68006 17.8942H3.18518C3.09034 17.8942 3.02539 17.8301 3.02539 17.7348V9.6967C3.02539 9.63382 2.9946 9.60256 2.92949 9.60256H0.258339C0.163499 9.60256 0.099556 9.53854 0.099556 9.44361V7.29222C0.099556 7.19732 0.163457 7.13327 0.259348 7.13327H8.60482C8.70071 7.13327 8.76462 7.1973 8.76462 7.29222V9.44361C8.76462 9.53852 8.70071 9.60256 8.60482 9.60256H5.93468C5.87078 9.60256 5.83879 9.63382 5.83879 9.6967V17.7359C5.83879 17.8308 5.77489 17.894 5.679 17.894L5.68006 17.8942ZM74.6769 6.29729C74.7918 6.27052 74.8943 6.20566 74.9678 6.1132C75.0414 6.02074 75.0816 5.90612 75.082 5.78788H75.0801V0.52417C75.0794 0.444558 75.0608 0.366145 75.0256 0.294762C74.9904 0.22338 74.9396 0.160869 74.877 0.111901C74.8144 0.0629325 74.7415 0.0287666 74.6639 0.0119439C74.5862 -0.00487886 74.5058 -0.00391842 74.4286 0.0147473L66.8563 1.81167C66.6235 1.86722 66.38 1.85775 66.1522 1.7843L62.7356 0.673492C62.5072 0.599501 62.2629 0.590031 62.0295 0.646122L54.2685 2.49987C54.1537 2.52642 54.0512 2.5911 53.9777 2.68338C53.9041 2.77566 53.8638 2.89013 53.8634 3.00824V8.27092C53.8642 8.35069 53.883 8.42924 53.9184 8.5007C53.9537 8.57217 54.0047 8.63473 54.0675 8.6837C54.1304 8.73266 54.2034 8.76679 54.2812 8.78352C54.3591 8.80026 54.4396 8.79918 54.517 8.78036L62.0295 6.98651C62.2625 6.93063 62.5078 6.94001 62.7356 7.01388L66.1522 8.12572C66.379 8.19798 66.6233 8.20849 66.8563 8.15309L74.676 6.29829L74.6769 6.29729ZM74.6769 14.1505C74.7919 14.1239 74.8945 14.059 74.9681 13.9665C75.0416 13.874 75.0818 13.7593 75.082 13.641H75.0801V8.37839C75.0794 8.29878 75.0608 8.22035 75.0256 8.14897C74.9904 8.07759 74.9396 8.01509 74.877 7.96612C74.8144 7.91715 74.7415 7.88299 74.6639 7.86617C74.5862 7.84934 74.5058 7.85029 74.4286 7.86895L66.8563 9.66381C66.6235 9.71936 66.38 9.70989 66.1522 9.63644L62.7356 8.525C62.5072 8.45101 62.2629 8.44154 62.0295 8.49763L54.2696 10.3514C54.1546 10.378 54.0519 10.4428 53.9784 10.5353C53.9048 10.6278 53.8646 10.7425 53.8644 10.8608V16.1224C53.8652 16.2022 53.8841 16.2807 53.9194 16.3522C53.9548 16.4237 54.0057 16.4862 54.0686 16.5352C54.1314 16.5842 54.2044 16.6183 54.2823 16.635C54.3601 16.6518 54.4407 16.6507 54.518 16.6318L62.0305 14.838C62.2635 14.7822 62.5088 14.7915 62.7367 14.8654L66.1532 15.9773C66.38 16.0506 66.6244 16.06 66.8573 16.0046L74.6769 14.1505Z" fill="white"/>
</svg>
