<svg width="211" height="26" viewBox="0 0 211 26" fill="none" xmlns="http://www.w3.org/2000/svg">
<path d="M8.87569 5.08986C15.9007 -1.69662 27.1893 -1.69662 34.2143 5.08986L35.0508 5.91923C35.4196 6.28486 35.4196 6.83776 35.0508 7.11422L32.1814 9.86092C31.9925 10.0482 31.7227 10.0482 31.5338 9.86092L30.3285 8.76402C25.4263 3.99297 17.5647 3.99297 12.6625 8.76402L11.4662 9.95009C11.2773 10.1374 11.0075 10.1374 10.8186 9.95009L7.94922 7.2034C7.58043 6.83776 7.58043 6.28486 7.94922 6.0084L8.87569 5.08986ZM40.1329 10.8686L42.7234 13.3478C43.0922 13.7134 43.0922 14.2663 42.7234 14.5428L31.165 25.7258C30.7962 26.0914 30.2385 26.0914 29.8697 25.7258L21.6394 17.7443C21.5495 17.6551 21.4505 17.6551 21.3606 17.7443L13.1303 25.7258C12.7615 26.0914 12.2038 26.0914 11.835 25.7258L0.276592 14.5428C-0.0921975 14.1772 -0.0921975 13.6243 0.276592 13.3478L2.86712 10.8686C3.23591 10.503 3.79359 10.503 4.16238 10.8686L12.3927 18.8501C12.4826 18.9393 12.5816 18.9393 12.6715 18.8501L20.9018 10.8686C21.2706 10.503 21.8283 10.503 22.1971 10.8686L30.4274 18.8501C30.5174 18.9393 30.6163 18.9393 30.7063 18.8501L38.9366 10.8686C39.3054 10.503 39.863 10.503 40.2318 10.8686H40.1329Z" fill="white"/>
<path d="M63.163 21.2792L65.8574 10.3269C66.0243 9.75463 66.1833 9.10289 66.3502 8.03786C66.5171 9.01546 66.676 9.67515 66.7555 10.3269L69.124 21.2792H74.0279L78.1132 5.0971H74.3538L72.0648 15.0639C71.8184 16.0415 71.6594 16.7807 71.4925 17.9252C71.3256 16.8601 71.0872 16.0494 70.9203 15.0639L68.7187 5.0971H63.8148L61.4463 15.0639C61.1999 16.0415 61.0409 16.7807 60.874 17.9252C60.7071 16.7807 60.5481 16.0494 60.3017 15.0639L58.0922 5.0971H54.1738L58.2591 21.2792H63.163Z" fill="white"/>
<path d="M80.9745 21.6918C82.8503 21.6918 83.9948 20.9527 84.567 19.8161C84.4875 20.142 84.4875 20.5553 84.4875 20.8811V21.2865H87.5952V14.5863C87.5952 11.3992 86.1248 9.52342 82.6118 9.52342C79.5041 9.52342 77.5489 11.2402 77.3025 13.6087H80.7361C80.8156 12.5437 81.5547 11.9714 82.6992 11.9714C83.7643 11.9714 84.3365 12.5437 84.3365 13.2828C84.3365 13.7756 84.0107 14.1015 83.1125 14.181L81.4753 14.3479C79.1067 14.6737 76.9846 15.4924 76.9846 18.1073C76.9846 20.3963 78.9478 21.6998 80.9109 21.6998H80.9745V21.6918ZM82.0396 19.3154C81.1414 19.3154 80.4897 18.8226 80.4897 17.9245C80.4897 17.1058 81.2289 16.613 82.4529 16.4541L83.2715 16.2872C83.9232 16.1203 84.3365 16.0408 84.5829 15.7944V16.8594C84.5829 18.3298 83.5179 19.2279 82.2144 19.2279L82.0396 19.3154Z" fill="white"/>
<path d="M89.2244 5.01702V21.2786H92.5785V5.01702H89.2244Z" fill="white"/>
<path d="M94.4622 5.01702V21.2786H97.8877V5.01702H94.4622Z" fill="white"/>
<path d="M105.16 21.6918C108.347 21.6918 110.39 19.8956 110.636 17.5271H107.282C107.115 18.5921 106.217 19.1644 105.16 19.1644C103.69 19.1644 102.712 18.0198 102.625 16.3826H110.716V15.7308C110.716 11.9714 108.673 9.52342 105.081 9.52342C101.647 9.52342 99.2787 11.8919 99.2787 15.5719C99.2787 19.4823 101.735 21.6918 105.16 21.6918ZM102.633 14.173C102.8 12.8616 103.698 11.9635 105.081 11.9635C106.392 11.9635 107.29 12.8616 107.29 14.173H102.633Z" fill="white"/>
<path d="M117.83 21.4457C118.569 21.4457 119.3 21.3662 119.626 21.1993V18.6639C119.379 18.7434 119.054 18.7434 118.807 18.7434C117.583 18.7434 117.17 18.0042 117.17 16.9471V12.536H119.864V9.92107H117.17V5.91528H113.816V9.92107H111.368V12.536H113.816V17.4399C113.816 20.1343 115.127 21.5252 117.822 21.5252V21.4457H117.83Z" fill="white"/>
<path d="M129.187 21.6922C133.765 21.6922 136.539 18.9978 136.865 15.151H133.272C133.026 17.2731 131.476 18.664 129.346 18.664C126.811 18.664 124.935 16.5419 124.935 13.0289C124.935 9.59533 126.811 7.63217 129.346 7.63217C131.556 7.63217 132.78 8.94359 133.026 10.9862H136.785C136.38 6.98043 133.431 4.69141 129.346 4.69141C124.689 4.69141 121.096 7.87856 121.096 13.1083C121.096 18.5845 124.204 21.6922 129.108 21.6922H129.187Z" fill="white"/>
<path d="M144.145 21.6922C147.658 21.6922 150.114 19.4827 150.114 15.6438C150.114 11.8844 147.666 9.51587 144.145 9.51587C140.712 9.51587 138.176 11.8844 138.176 15.6438C138.176 19.4827 140.632 21.6922 144.145 21.6922ZM144.145 19.0773C142.595 19.0773 141.61 17.7659 141.61 15.6438C141.61 13.4342 142.675 12.1308 144.145 12.1308C145.695 12.1308 146.681 13.3548 146.681 15.6438C146.681 17.8454 145.695 19.0773 144.145 19.0773Z" fill="white"/>
<path d="M154.851 21.2786V14.6579C154.851 13.267 155.749 12.2099 156.973 12.2099C158.118 12.2099 158.849 13.108 158.849 14.5784V21.2786H162.203V14.0856C162.203 11.3912 160.733 9.50756 158.197 9.50756C156.401 9.50756 155.336 10.3262 154.764 11.3833C154.843 10.9779 154.843 10.6441 154.843 10.3183V9.91291H151.489V21.2706H154.851V21.2786Z" fill="white"/>
<path d="M167.513 21.2786V14.6579C167.513 13.267 168.411 12.2099 169.635 12.2099C170.779 12.2099 171.51 13.108 171.51 14.5784V21.2786H174.864V14.0856C174.864 11.3912 173.394 9.50756 170.859 9.50756C169.062 9.50756 167.997 10.3262 167.425 11.3833C167.505 10.9779 167.505 10.6441 167.505 10.3183V9.91291H164.151V21.2706H167.513V21.2786Z" fill="white"/>
<path d="M182.145 21.6918C185.332 21.6918 187.374 19.8956 187.621 17.5271H184.267C184.1 18.5921 183.202 19.1644 182.145 19.1644C180.674 19.1644 179.697 18.0198 179.609 16.3826H187.7V15.7308C187.7 11.9714 185.658 9.52342 182.065 9.52342C178.632 9.52342 176.263 11.8919 176.263 15.5719C176.255 19.4823 178.711 21.6918 182.145 21.6918ZM179.609 14.173C179.776 12.8616 180.674 11.9635 182.057 11.9635C183.369 11.9635 184.267 12.8616 184.267 14.173H179.609Z" fill="white"/>
<path d="M194.893 21.6922C198.406 21.6922 200.369 19.7291 200.695 16.7883H197.341C197.262 18.0123 196.523 19.0773 194.973 19.0773C193.423 19.0773 192.437 17.6864 192.437 15.5643C192.437 13.2753 193.661 12.1308 195.052 12.1308C196.443 12.1308 197.174 13.1084 197.262 14.3403H200.616C200.369 11.5585 198.494 9.51587 195.06 9.51587C191.706 9.51587 189.012 11.7254 189.012 15.5643C189.004 19.3158 191.213 21.6922 194.893 21.6922Z" fill="white"/>
<path d="M207.968 21.4457C208.707 21.4457 209.438 21.3662 209.764 21.1993V18.6639C209.518 18.7434 209.192 18.7434 208.945 18.7434C207.721 18.7434 207.308 18.0042 207.308 16.9471V12.536H210.003V9.92107H207.308V5.91528H203.954V9.92107H201.506V12.536H203.954V17.4399C203.954 20.1343 205.266 21.5252 207.96 21.5252V21.4457H207.968Z" fill="white"/>
</svg>
