<svg width="18" height="21" viewBox="0 0 18 21" fill="none" xmlns="http://www.w3.org/2000/svg">
<path fill-rule="evenodd" clip-rule="evenodd" d="M8.89649 5.56481C9.00969 5.66462 9.16069 5.7103 9.31029 5.68997C10.3114 5.50537 11.2069 4.95234 11.8203 4.13997C12.4167 3.38728 12.7659 2.46873 12.8203 1.50997C12.8248 1.35109 12.7549 1.19921 12.6314 1.09921C12.5079 0.999199 12.3448 0.962509 12.1903 0.999969C11.2254 1.25193 10.3624 1.79697 9.72029 2.55997C9.11019 3.29704 8.75889 4.21395 8.72029 5.16997C8.71889 5.32091 8.78319 5.465 8.89649 5.56481ZM16.2528 8.22549C15.6612 8.78066 14.7303 9.6542 14.7303 11.51C14.7164 13.1669 15.6263 14.6938 17.0903 15.47C17.2714 15.5518 17.3885 15.7313 17.3903 15.93C17.3903 16 15.2903 21 12.7703 21C12.2186 21 11.8509 20.8261 11.4482 20.6357C10.9603 20.405 10.4208 20.15 9.44029 20.15C8.47389 20.15 7.93309 20.3977 7.43536 20.6257C7.01123 20.82 6.61844 21 6.0203 21C3.7003 21 0.550304 16.14 0.550304 11.75C0.510444 10.51 0.818754 9.2837 1.4403 8.20997C2.3169 6.7243 3.87791 5.77494 5.6003 5.67997C6.41197 5.67997 7.07641 5.91887 7.70489 6.14484C8.26889 6.34761 8.80389 6.53997 9.39029 6.53997C9.95019 6.53997 10.402 6.36465 10.8976 6.17233C11.4998 5.9387 12.1666 5.67997 13.1703 5.67997C15.0003 5.67997 16.7303 6.99997 16.7303 7.58997C16.7303 7.77744 16.5284 7.96693 16.2528 8.22549Z" fill="white"/>
</svg>
