<svg width="100%" height="100%" viewBox="0 0 24 24" fill="none" xmlns="http://www.w3.org/2000/svg">
	<path d="M18.2477 6.71006C17.0651 6.16862 15.8166 5.78451 14.5342 5.56754C14.3587 5.88125 14.1999 6.20402 14.0585 6.5345C12.6925 6.32865 11.3033 6.32865 9.93722 6.5345C9.79573 6.20406 9.63694 5.88129 9.46152 5.56754C8.17826 5.78634 6.92896 6.17137 5.74515 6.71289C3.39498 10.19 2.75789 13.5807 3.07644 16.9234C4.45275 17.9402 5.99324 18.7136 7.63094 19.2098C7.99971 18.7138 8.32601 18.1877 8.6064 17.6369C8.07384 17.438 7.55982 17.1926 7.0703 16.9035C7.19914 16.8101 7.32514 16.7138 7.4469 16.6204C8.87129 17.2902 10.4259 17.6376 12 17.6376C13.574 17.6376 15.1287 17.2902 16.5531 16.6204C16.6762 16.7209 16.8023 16.8172 16.9297 16.9035C16.4392 17.1931 15.9242 17.4389 15.3907 17.6383C15.6708 18.1888 15.9971 18.7146 16.3662 19.2098C18.0053 18.7156 19.547 17.9426 20.9235 16.9248C21.2973 13.0484 20.285 9.68882 18.2477 6.71006ZM9.0099 14.8677C8.12221 14.8677 7.38885 14.0621 7.38885 13.0711C7.38885 12.08 8.09673 11.2674 9.00707 11.2674C9.9174 11.2674 10.6451 12.08 10.6295 13.0711C10.614 14.0621 9.91457 14.8677 9.0099 14.8677ZM14.9901 14.8677C14.101 14.8677 13.3704 14.0621 13.3704 13.0711C13.3704 12.08 14.0783 11.2674 14.9901 11.2674C15.9018 11.2674 16.6239 12.08 16.6083 13.0711C16.5927 14.0621 15.8947 14.8677 14.9901 14.8677Z" fill="white">
	</path>
</svg>
