<svg width="32" height="32" viewBox="0 0 32 32" fill="none" xmlns="http://www.w3.org/2000/svg">
<path fill-rule="evenodd" clip-rule="evenodd" d="M10.0002 2.66797C7.86145 2.66797 5.86683 2.98101 4.35906 3.52929C4.31228 3.5463 4.2657 3.56364 4.21933 3.5813C3.52385 3.8463 2.8776 4.18588 2.37389 4.61893C1.84092 5.07714 1.3335 5.76498 1.3335 6.66797V8.66797C1.3335 9.57096 1.84092 10.2588 2.37389 10.717C2.91118 11.1789 3.61065 11.5345 4.35906 11.8066C5.86683 12.3549 7.86145 12.668 10.0002 12.668C10.3096 12.668 10.6161 12.6614 10.9185 12.6485C11.1051 12.6406 11.1984 12.6366 11.282 12.6104C11.362 12.5853 11.4207 12.5549 11.4873 12.504C11.5569 12.4508 11.628 12.3586 11.77 12.1743C12.0543 11.8056 12.3582 11.5018 12.6354 11.2635C13.5051 10.5158 14.5296 10.0237 15.4477 9.68984C16.1577 9.43168 16.9387 9.22221 17.7595 9.06168C18.0967 8.99574 18.2653 8.96276 18.3801 8.88311C18.4848 8.81047 18.5595 8.71978 18.6107 8.60307C18.6668 8.47508 18.6668 8.312 18.6668 7.98585C18.6668 7.53561 18.6668 7.0169 18.6668 6.66797C18.6668 5.76498 18.1594 5.07714 17.6264 4.61893C17.0891 4.15701 16.3897 3.80144 15.6413 3.52929C14.1335 2.98101 12.1389 2.66797 10.0002 2.66797Z" fill="url(#paint0_linear_6309_6058)"/>
<path d="M10.666 15.9912C10.6663 15.6265 10.3648 15.3346 10.0002 15.3346C7.86145 15.3346 5.86683 15.0216 4.35906 14.4733C3.61065 14.2012 2.91118 13.8456 2.37389 13.3837C2.17804 13.2153 1.98564 13.0159 1.8206 12.7862C1.7685 12.7137 1.68598 12.668 1.59669 12.668C1.45133 12.668 1.3335 12.7858 1.3335 12.9312V15.3346C1.3335 16.2376 1.84092 16.9255 2.37389 17.3837C2.91118 17.8456 3.61065 18.2012 4.35906 18.4733C5.86683 19.0216 7.86145 19.3346 10.0002 19.3346C10.0055 19.3346 10.0082 19.3346 10.0164 19.3344C10.3641 19.3259 10.6581 19.0318 10.6665 18.6841C10.6667 18.6759 10.6667 18.6698 10.6667 18.6577C10.6662 17.7688 10.6653 16.88 10.666 15.9912Z" fill="url(#paint1_linear_6309_6058)"/>
<path d="M10.6668 22.6579C10.6668 22.293 10.365 22.0013 10.0002 22.0013C7.86145 22.0013 5.86683 21.6883 4.35906 21.14C3.61065 20.8678 2.91118 20.5123 2.37389 20.0503C2.17804 19.882 1.98564 19.6826 1.8206 19.4529C1.7685 19.3804 1.68598 19.3346 1.59669 19.3346C1.45133 19.3346 1.3335 19.4525 1.3335 19.5978V22.668C1.3335 23.571 1.84092 24.2588 2.37389 24.717C2.91118 25.1789 3.61065 25.5345 4.35906 25.8066C5.86683 26.3549 7.86145 26.668 10.0002 26.668C10.0257 26.668 10.0395 26.668 10.0395 26.668C10.4662 26.6666 10.7406 26.3645 10.7012 25.9396C10.7012 25.9396 10.6974 25.9009 10.6902 25.8255C10.6749 25.6663 10.6668 25.5027 10.6668 25.3346V22.6579Z" fill="url(#paint2_linear_6309_6058)"/>
<path fill-rule="evenodd" clip-rule="evenodd" d="M18.943 10.893C19.8975 10.7462 20.9308 10.668 22.0002 10.668C24.1389 10.668 26.1335 10.981 27.6413 11.5293C27.688 11.5463 27.7346 11.5636 27.781 11.5813C28.4765 11.8463 29.1227 12.1859 29.6264 12.6189C30.1594 13.0771 30.6668 13.765 30.6668 14.668V17.3346C30.6668 18.2376 30.1594 18.9255 29.6264 19.3837C29.0891 19.8456 28.3897 20.2012 27.6413 20.4733C26.1335 21.0216 24.1389 21.3346 22.0002 21.3346C19.8615 21.3346 17.8668 21.0216 16.3591 20.4733C15.6107 20.2012 14.9112 19.8456 14.3739 19.3837C13.8409 18.9255 13.3335 18.2376 13.3335 17.3346C13.3335 16.4418 13.3335 15.5469 13.3335 14.668C13.3335 13.765 13.8409 13.0771 14.3739 12.6189C14.9112 12.157 15.6107 11.8014 16.3591 11.5293C16.4533 11.495 16.5494 11.4617 16.6474 11.4293C17.2569 11.2276 17.9367 11.0623 18.6668 10.9378C18.7581 10.9222 18.8502 10.9073 18.943 10.893Z" fill="url(#paint3_linear_6309_6058)"/>
<path d="M13.5967 21.3346C13.4513 21.3346 13.3335 21.4525 13.3335 21.5978V24.668C13.3335 25.571 13.8409 26.2588 14.3739 26.717C14.9112 27.1789 15.6107 27.5345 16.3591 27.8066C17.8668 28.3549 19.8615 28.668 22.0002 28.668C24.1389 28.668 26.1335 28.3549 27.6413 27.8066C28.3897 27.5345 29.0891 27.1789 29.6264 26.717C30.1594 26.2588 30.6668 25.571 30.6668 24.668V21.5978C30.6668 21.4525 30.549 21.3346 30.4036 21.3346C30.3144 21.3346 30.2318 21.3804 30.1797 21.4529C30.0147 21.6826 29.8223 21.882 29.6264 22.0503C29.0891 22.5123 28.3897 22.8678 27.6413 23.14C26.1335 23.6883 24.1389 24.0013 22.0002 24.0013C19.8615 24.0013 17.8668 23.6883 16.3591 23.14C15.6107 22.8678 14.9112 22.5123 14.3739 22.0503C14.178 21.882 13.9856 21.6826 13.8206 21.4529C13.7685 21.3804 13.686 21.3346 13.5967 21.3346Z" fill="url(#paint4_linear_6309_6058)"/>
<defs>
<linearGradient id="paint0_linear_6309_6058" x1="8.50043" y1="10.3498" x2="28.2994" y2="32.6872" gradientUnits="userSpaceOnUse">
<stop stop-color="white" stop-opacity="0.9"/>
<stop offset="1" stop-color="white" stop-opacity="0.2"/>
</linearGradient>
<linearGradient id="paint1_linear_6309_6058" x1="8.50043" y1="10.3498" x2="28.2994" y2="32.6872" gradientUnits="userSpaceOnUse">
<stop stop-color="white" stop-opacity="0.9"/>
<stop offset="1" stop-color="white" stop-opacity="0.2"/>
</linearGradient>
<linearGradient id="paint2_linear_6309_6058" x1="8.50043" y1="10.3498" x2="28.2994" y2="32.6872" gradientUnits="userSpaceOnUse">
<stop stop-color="white" stop-opacity="0.9"/>
<stop offset="1" stop-color="white" stop-opacity="0.2"/>
</linearGradient>
<linearGradient id="paint3_linear_6309_6058" x1="8.50043" y1="10.3498" x2="28.2994" y2="32.6872" gradientUnits="userSpaceOnUse">
<stop stop-color="white" stop-opacity="0.9"/>
<stop offset="1" stop-color="white" stop-opacity="0.2"/>
</linearGradient>
<linearGradient id="paint4_linear_6309_6058" x1="8.50043" y1="10.3498" x2="28.2994" y2="32.6872" gradientUnits="userSpaceOnUse">
<stop stop-color="white" stop-opacity="0.9"/>
<stop offset="1" stop-color="white" stop-opacity="0.2"/>
</linearGradient>
</defs>
</svg>
