<svg width="238" height="283" viewBox="0 0 238 283" fill="none" xmlns="http://www.w3.org/2000/svg">
<path d="M3.60412 86.5458C5.5957 86.5458 7.2102 84.9313 7.2102 82.9397C7.2102 80.9481 5.5957 79.3336 3.60412 79.3336C1.61254 79.3336 -0.00195312 80.9481 -0.00195312 82.9397C-0.00195312 84.9313 1.61254 86.5458 3.60412 86.5458Z" fill="black"/>
<path d="M3.60412 100.97C5.5957 100.97 7.2102 99.3555 7.2102 97.3639C7.2102 95.3724 5.5957 93.7579 3.60412 93.7579C1.61254 93.7579 -0.00195312 95.3724 -0.00195312 97.3639C-0.00195312 99.3555 1.61254 100.97 3.60412 100.97Z" fill="black"/>
<path d="M7.2102 115.394V108.182H3.60412C1.59502 108.182 -0.00195312 109.779 -0.00195312 111.788C-0.00195312 113.797 1.59502 115.394 3.60412 115.394" fill="black"/>
<path d="M3.60412 137.031C5.5957 137.031 7.2102 135.416 7.2102 133.425C7.2102 131.433 5.5957 129.819 3.60412 129.819C1.61254 129.819 -0.00195312 131.433 -0.00195312 133.425C-0.00195312 135.416 1.61254 137.031 3.60412 137.031Z" fill="black"/>
<path d="M-0.00195312 151.455H7.2102V144.243H3.60412C1.59502 144.243 -0.00195312 145.84 -0.00195312 147.849" fill="black"/>
<path d="M7.2102 151.455H-0.00195312V158.667H7.2102V151.455Z" fill="black"/>
<path d="M7.2102 158.667H-0.00195312V162.273C-0.00195312 164.282 1.59502 165.879 3.60412 165.879C5.61322 165.879 7.2102 164.282 7.2102 162.273" fill="black"/>
<path d="M10.8151 64.9093C12.8066 64.9093 14.4211 63.2948 14.4211 61.3032C14.4211 59.3116 12.8066 57.6971 10.8151 57.6971C8.82348 57.6971 7.20898 59.3116 7.20898 61.3032C7.20898 63.2948 8.82348 64.9093 10.8151 64.9093Z" fill="black"/>
<path d="M7.20898 108.182H14.4211V100.97H10.8151C8.80596 100.97 7.20898 102.567 7.20898 104.576" fill="black"/>
<path d="M14.4211 108.182H7.20898V115.394H14.4211V108.182Z" fill="black"/>
<path d="M14.4211 115.394H7.20898V122.607H14.4211V115.394Z" fill="black"/>
<path d="M14.4211 129.819V122.606H7.20898V126.213C7.20898 128.222 8.80596 129.819 10.8151 129.819" fill="black"/>
<path d="M7.20898 144.243H14.4211V137.031H10.8151C8.80596 137.031 7.20898 138.628 7.20898 140.637" fill="black"/>
<path d="M14.4211 144.243H7.20898V151.455H14.4211V144.243Z" fill="black"/>
<path d="M14.4211 151.455H7.20898V158.667H14.4211V151.455Z" fill="black"/>
<path d="M10.8151 180.304C12.8066 180.304 14.4211 178.689 14.4211 176.698C14.4211 174.706 12.8066 173.092 10.8151 173.092C8.82348 173.092 7.20898 174.706 7.20898 176.698C7.20898 178.689 8.82348 180.304 10.8151 180.304Z" fill="black"/>
<path d="M21.6301 79.3336V72.1215H18.024C16.0149 72.1215 14.418 73.7184 14.418 75.7275C14.418 77.7366 16.0149 79.3336 18.024 79.3336" fill="black"/>
<path d="M18.024 93.758C20.0156 93.758 21.6301 92.1435 21.6301 90.1519C21.6301 88.1603 20.0156 86.5458 18.024 86.5458C16.0325 86.5458 14.418 88.1603 14.418 90.1519C14.418 92.1435 16.0325 93.758 18.024 93.758Z" fill="black"/>
<path d="M21.6301 100.97H14.418V108.182H21.6301V100.97Z" fill="black"/>
<path d="M14.418 122.606V129.819H21.6301V126.213C21.6301 124.203 20.0331 122.606 18.024 122.606" fill="black"/>
<path d="M21.6301 129.819H14.418V137.031H21.6301V129.819Z" fill="black"/>
<path d="M21.6301 137.031H14.418V144.243H18.024C20.0331 144.243 21.6301 142.646 21.6301 140.637" fill="black"/>
<path d="M21.6301 151.455H14.418V158.667H21.6301V151.455Z" fill="black"/>
<path d="M21.6301 165.879V158.667H14.418V162.273C14.418 164.282 16.0149 165.879 18.024 165.879" fill="black"/>
<path d="M21.6387 64.9093H28.8508V57.6971H25.2447C23.2356 57.6971 21.6387 59.2941 21.6387 61.3032" fill="black"/>
<path d="M28.8508 64.9093H21.6387V72.1215H28.8508V64.9093Z" fill="black"/>
<path d="M28.8508 72.1215H21.6387V79.3336H25.2447C27.2538 79.3336 28.8508 77.7366 28.8508 75.7275" fill="black"/>
<path d="M21.6387 100.97H28.8508V93.7579H25.2447C23.2356 93.7579 21.6387 95.3548 21.6387 97.3639" fill="black"/>
<path d="M28.8508 100.97H21.6387V108.182H28.8508V100.97Z" fill="black"/>
<path d="M28.8508 151.455H21.6387V158.667H28.8508V151.455Z" fill="black"/>
<path d="M28.8508 158.667H21.6387V165.879H28.8508V158.667Z" fill="black"/>
<path d="M28.8477 57.6971V64.9093H32.4537C34.4628 64.9093 36.0598 63.3123 36.0598 61.3032C36.0598 59.2941 34.4628 57.6971 32.4537 57.6971" fill="black"/>
<path d="M28.8477 93.7579V100.97H36.0598V97.3639C36.0598 95.3548 34.4628 93.7579 32.4537 93.7579" fill="black"/>
<path d="M36.0598 100.97H28.8477V108.182H36.0598V100.97Z" fill="black"/>
<path d="M32.4537 137.031C34.4453 137.031 36.0598 135.416 36.0598 133.425C36.0598 131.433 34.4453 129.819 32.4537 129.819C30.4622 129.819 28.8477 131.433 28.8477 133.425C28.8477 135.416 30.4622 137.031 32.4537 137.031Z" fill="black"/>
<path d="M28.8477 151.455H36.0598V144.243H32.4537C30.4446 144.243 28.8477 145.84 28.8477 147.849" fill="black"/>
<path d="M36.0598 151.455H28.8477V158.667H36.0598V151.455Z" fill="black"/>
<path d="M36.0598 158.667H28.8477V165.879H32.4537C34.4628 165.879 36.0598 164.282 36.0598 162.273" fill="black"/>
<path d="M36.0586 72.1215H43.2707V68.5154C43.2707 66.5063 41.6738 64.9093 39.6647 64.9093C37.6556 64.9093 36.0586 66.5063 36.0586 68.5154" fill="black"/>
<path d="M43.2707 72.1215H36.0586V79.3336H43.2707V72.1215Z" fill="black"/>
<path d="M43.2707 79.3336H36.0586V86.5458H43.2707V79.3336Z" fill="black"/>
<path d="M43.2707 93.758V86.5458H36.0586V90.1519C36.0586 92.161 37.6556 93.758 39.6647 93.758" fill="black"/>
<path d="M43.2707 100.97H36.0586V108.182H43.2707V100.97Z" fill="black"/>
<path d="M43.2707 144.243H36.0586V151.455H43.2707V144.243Z" fill="black"/>
<path d="M39.6647 173.092C41.6563 173.092 43.2707 171.477 43.2707 169.486C43.2707 167.494 41.6563 165.879 39.6647 165.879C37.6731 165.879 36.0586 167.494 36.0586 169.486C36.0586 171.477 37.6731 173.092 39.6647 173.092Z" fill="black"/>
<path d="M50.4797 64.9093V57.6971H46.8737C44.8646 57.6971 43.2676 59.2941 43.2676 61.3032C43.2676 63.3123 44.8646 64.9093 46.8737 64.9093" fill="black"/>
<path d="M43.2676 72.1215V79.3336H46.8737C48.8828 79.3336 50.4797 77.7366 50.4797 75.7275C50.4797 73.7184 48.8828 72.1215 46.8737 72.1215" fill="black"/>
<path d="M50.4797 86.5458H43.2676V93.758H50.4797V86.5458Z" fill="black"/>
<path d="M50.4797 100.97H43.2676V108.182H50.4797V100.97Z" fill="black"/>
<path d="M50.4797 122.607V115.394H46.8737C44.8646 115.394 43.2676 116.991 43.2676 119C43.2676 121.01 44.8646 122.607 46.8737 122.607" fill="black"/>
<path d="M46.8737 137.031C48.8652 137.031 50.4797 135.416 50.4797 133.425C50.4797 131.433 48.8652 129.819 46.8737 129.819C44.8821 129.819 43.2676 131.433 43.2676 133.425C43.2676 135.416 44.8821 137.031 46.8737 137.031Z" fill="black"/>
<path d="M50.4797 144.243H43.2676V151.455H50.4797V144.243Z" fill="black"/>
<path d="M50.4797 165.879V158.667H46.8737C44.8646 158.667 43.2676 160.264 43.2676 162.273C43.2676 164.282 44.8646 165.879 46.8737 165.879" fill="black"/>
<path d="M50.4797 180.304V173.092H46.8737C44.8646 173.092 43.2676 174.689 43.2676 176.698C43.2676 178.707 44.8646 180.304 46.8737 180.304" fill="black"/>
<path d="M57.6907 57.6971H50.4785V64.9093H57.6907V57.6971Z" fill="black"/>
<path d="M50.4785 86.5458H57.6907V82.9397C57.6907 80.9306 56.0937 79.3336 54.0846 79.3336C52.0755 79.3336 50.4785 80.9306 50.4785 82.9397" fill="black"/>
<path d="M57.6907 86.5458H50.4785V93.758H54.0846C56.0937 93.758 57.6907 92.161 57.6907 90.1519" fill="black"/>
<path d="M50.4785 100.97V108.182H54.0846C56.0937 108.182 57.6907 106.585 57.6907 104.576C57.6907 102.567 56.0937 100.97 54.0846 100.97" fill="black"/>
<path d="M50.4785 115.394V122.607H54.0846C56.0937 122.607 57.6907 121.01 57.6907 119C57.6907 116.991 56.0937 115.394 54.0846 115.394" fill="black"/>
<path d="M50.4785 144.243H57.6907V137.031H54.0846C52.0755 137.031 50.4785 138.628 50.4785 140.637" fill="black"/>
<path d="M57.6907 144.243H50.4785V151.455H57.6907V144.243Z" fill="black"/>
<path d="M50.4785 158.667V165.879H54.0846C56.0937 165.879 57.6907 164.282 57.6907 162.273C57.6907 160.264 56.0937 158.667 54.0846 158.667" fill="black"/>
<path d="M57.6907 173.092H50.4785V180.304H57.6907V173.092Z" fill="black"/>
<path d="M61.3053 14.4243C63.2969 14.4243 64.9114 12.8098 64.9114 10.8182C64.9114 8.82665 63.2969 7.21216 61.3053 7.21216C59.3137 7.21216 57.6992 8.82665 57.6992 10.8182C57.6992 12.8098 59.3137 14.4243 61.3053 14.4243Z" fill="black"/>
<path d="M57.6992 28.8486H64.9114V21.6364H61.3053C59.2962 21.6364 57.6992 23.2334 57.6992 25.2425" fill="black"/>
<path d="M64.9114 28.8486H57.6992V36.0607H64.9114V28.8486Z" fill="black"/>
<path d="M64.9114 36.0607H57.6992V43.2728H64.9114V36.0607Z" fill="black"/>
<path d="M64.9114 43.2729H57.6992V46.879C57.6992 48.8881 59.2962 50.485 61.3053 50.485C63.3144 50.485 64.9114 48.8881 64.9114 46.879" fill="black"/>
<path d="M64.9114 57.6971H57.6992V64.9093H64.9114V57.6971Z" fill="black"/>
<path d="M64.9114 72.1215V64.9093H57.6992V68.5154C57.6992 70.5245 59.2962 72.1215 61.3053 72.1215" fill="black"/>
<path d="M64.9114 137.031H57.6992V144.243H64.9114V137.031Z" fill="black"/>
<path d="M64.9114 144.243H57.6992V151.455H61.3053C63.3144 151.455 64.9114 149.858 64.9114 147.849" fill="black"/>
<path d="M57.6992 173.092V180.304H64.9114V176.698C64.9114 174.689 63.3144 173.092 61.3053 173.092" fill="black"/>
<path d="M64.9114 180.304H57.6992V187.516H64.9114V180.304Z" fill="black"/>
<path d="M64.9114 187.516H57.6992V191.122C57.6992 193.131 59.2962 194.728 61.3053 194.728C63.3144 194.728 64.9114 193.131 64.9114 191.122" fill="black"/>
<path d="M57.6992 209.152H64.9114V201.94H61.3053C59.2962 201.94 57.6992 203.537 57.6992 205.546" fill="black"/>
<path d="M64.9114 216.364V209.152H57.6992V212.758C57.6992 214.768 59.2962 216.364 61.3053 216.364" fill="black"/>
<path d="M64.9114 230.789V223.577H61.3053C59.2962 223.577 57.6992 225.174 57.6992 227.183C57.6992 229.192 59.2962 230.789 61.3053 230.789" fill="black"/>
<path d="M68.5143 7.21209C70.5059 7.21209 72.1204 5.5976 72.1204 3.60601C72.1204 1.61443 70.5059 -6.10352e-05 68.5143 -6.10352e-05C66.5227 -6.10352e-05 64.9082 1.61443 64.9082 3.60601C64.9082 5.5976 66.5227 7.21209 68.5143 7.21209Z" fill="black"/>
<path d="M64.9082 21.6364V28.8486H72.1204V25.2425C72.1204 23.2334 70.5234 21.6364 68.5143 21.6364" fill="black"/>
<path d="M72.1204 28.8486H64.9082V36.0607H72.1204V28.8486Z" fill="black"/>
<path d="M72.1204 57.6971H64.9082V64.9093H72.1204V57.6971Z" fill="black"/>
<path d="M72.1204 64.9093H64.9082V72.1215H68.5143C70.5234 72.1215 72.1204 70.5245 72.1204 68.5154" fill="black"/>
<path d="M64.9082 86.5458H72.1204V82.9397C72.1204 80.9306 70.5234 79.3336 68.5143 79.3336C66.5052 79.3336 64.9082 80.9306 64.9082 82.9397" fill="black"/>
<path d="M72.1204 86.5458H64.9082V93.758H72.1204V86.5458Z" fill="black"/>
<path d="M72.1204 93.7579H64.9082V97.3639C64.9082 99.373 66.5052 100.97 68.5143 100.97C70.5234 100.97 72.1204 99.373 72.1204 97.3639" fill="black"/>
<path d="M72.1204 115.394V108.182H68.5143C66.5052 108.182 64.9082 109.779 64.9082 111.788C64.9082 113.797 66.5052 115.394 68.5143 115.394" fill="black"/>
<path d="M64.9082 137.031H72.1204V129.819H68.5143C66.5052 129.819 64.9082 131.416 64.9082 133.425" fill="black"/>
<path d="M72.1204 137.031H64.9082V144.243H68.5143C70.5234 144.243 72.1204 142.646 72.1204 140.637" fill="black"/>
<path d="M64.9082 158.667H72.1204V151.455H68.5143C66.5052 151.455 64.9082 153.052 64.9082 155.061" fill="black"/>
<path d="M72.1204 158.667H64.9082V165.879H72.1204V158.667Z" fill="black"/>
<path d="M72.1204 173.092V165.879H64.9082V169.486C64.9082 171.495 66.5052 173.092 68.5143 173.092" fill="black"/>
<path d="M72.1204 201.94H64.9082V209.152H72.1204V201.94Z" fill="black"/>
<path d="M72.1204 209.152H64.9082V216.364H72.1204V209.152Z" fill="black"/>
<path d="M72.1204 216.365H64.9082V223.577H72.1204V216.365Z" fill="black"/>
<path d="M72.1204 223.577H64.9082V230.789H72.1204V223.577Z" fill="black"/>
<path d="M72.1191 14.4243H79.3313V7.21216H75.7252C73.7161 7.21216 72.1191 8.80913 72.1191 10.8182" fill="black"/>
<path d="M79.3313 21.6364V14.4243H72.1191V18.0303C72.1191 20.0394 73.7161 21.6364 75.7252 21.6364" fill="black"/>
<path d="M79.3313 28.8486H72.1191V36.0607H79.3313V28.8486Z" fill="black"/>
<path d="M75.7252 50.485C77.7168 50.485 79.3313 48.8705 79.3313 46.879C79.3313 44.8874 77.7168 43.2729 75.7252 43.2729C73.7336 43.2729 72.1191 44.8874 72.1191 46.879C72.1191 48.8705 73.7336 50.485 75.7252 50.485Z" fill="black"/>
<path d="M79.3313 57.6971H72.1191V64.9093H79.3313V57.6971Z" fill="black"/>
<path d="M75.7252 79.3336C77.7168 79.3336 79.3313 77.7191 79.3313 75.7275C79.3313 73.736 77.7168 72.1215 75.7252 72.1215C73.7336 72.1215 72.1191 73.736 72.1191 75.7275C72.1191 77.7191 73.7336 79.3336 75.7252 79.3336Z" fill="black"/>
<path d="M72.1191 108.182H79.3313V104.576C79.3313 102.567 77.7343 100.97 75.7252 100.97C73.7161 100.97 72.1191 102.567 72.1191 104.576" fill="black"/>
<path d="M79.3313 108.182H72.1191V115.394H79.3313V108.182Z" fill="black"/>
<path d="M79.3313 115.394H72.1191V122.607H79.3313V115.394Z" fill="black"/>
<path d="M79.3313 122.606H72.1191V129.819H79.3313V122.606Z" fill="black"/>
<path d="M79.3313 129.819H72.1191V137.031H75.7252C77.7343 137.031 79.3313 135.434 79.3313 133.425" fill="black"/>
<path d="M72.1191 151.455H79.3313V147.849C79.3313 145.84 77.7343 144.243 75.7252 144.243C73.7161 144.243 72.1191 145.84 72.1191 147.849" fill="black"/>
<path d="M79.3313 151.455H72.1191V158.667H79.3313V151.455Z" fill="black"/>
<path d="M79.3313 158.667H72.1191V165.879H79.3313V158.667Z" fill="black"/>
<path d="M79.3313 165.879H72.1191V173.092H79.3313V165.879Z" fill="black"/>
<path d="M79.3313 173.092H72.1191V180.304H79.3313V173.092Z" fill="black"/>
<path d="M79.3313 180.304H72.1191V187.516H79.3313V180.304Z" fill="black"/>
<path d="M79.3313 187.516H72.1191V191.122C72.1191 193.131 73.7161 194.728 75.7252 194.728C77.7343 194.728 79.3313 193.131 79.3313 191.122" fill="black"/>
<path d="M72.1191 201.94V209.152H79.3313V205.546C79.3313 203.537 77.7343 201.94 75.7252 201.94" fill="black"/>
<path d="M79.3313 209.152H72.1191V216.364H79.3313V209.152Z" fill="black"/>
<path d="M79.3313 216.365H72.1191V223.577H79.3313V216.365Z" fill="black"/>
<path d="M79.3313 223.577H72.1191V230.789H79.3313V223.577Z" fill="black"/>
<path d="M79.3313 238.001V230.789H72.1191V234.395C72.1191 236.404 73.7161 238.001 75.7252 238.001" fill="black"/>
<path d="M86.5403 7.21216H79.3281V14.4243H86.5403V7.21216Z" fill="black"/>
<path d="M86.5403 14.4243H79.3281V21.6364H86.5403V14.4243Z" fill="black"/>
<path d="M86.5403 21.6364H79.3281V28.8486H86.5403V21.6364Z" fill="black"/>
<path d="M86.5403 28.8486H79.3281V36.0607H86.5403V28.8486Z" fill="black"/>
<path d="M86.5403 36.0607H79.3281V39.6667C79.3281 41.6758 80.9251 43.2728 82.9342 43.2728C84.9433 43.2728 86.5403 41.6758 86.5403 39.6667" fill="black"/>
<path d="M86.5403 57.6971H79.3281V64.9093H86.5403V57.6971Z" fill="black"/>
<path d="M86.5403 64.9093H79.3281V68.5154C79.3281 70.5245 80.9251 72.1215 82.9342 72.1215C84.9433 72.1215 86.5403 70.5245 86.5403 68.5154" fill="black"/>
<path d="M79.3281 115.394H82.9342C84.9433 115.394 86.5403 116.991 86.5403 119V122.607H79.3281V115.394Z" fill="black"/>
<path d="M79.3281 122.606H86.5403V126.213C86.5403 128.222 84.9433 129.819 82.9342 129.819H79.3281V122.606Z" fill="black"/>
<path d="M86.5403 180.304H79.3281V187.516H86.5403V180.304Z" fill="black"/>
<path d="M86.5403 201.94V194.728H82.9342C80.9251 194.728 79.3281 196.325 79.3281 198.334C79.3281 200.343 80.9251 201.94 82.9342 201.94" fill="black"/>
<path d="M79.3281 216.365V223.577H82.9342C84.9433 223.577 86.5403 221.98 86.5403 219.971C86.5403 217.961 84.9433 216.365 82.9342 216.365" fill="black"/>
<path d="M86.5403 230.789H79.3281V238.001H86.5403V230.789Z" fill="black"/>
<path d="M93.761 7.21216H86.5488V14.4243H93.761V7.21216Z" fill="black"/>
<path d="M93.761 14.4243H86.5488V21.6364H93.761V14.4243Z" fill="black"/>
<path d="M93.761 21.6364H86.5488V28.8486H93.761V21.6364Z" fill="black"/>
<path d="M93.761 28.8486H86.5488V36.0607H93.761V28.8486Z" fill="black"/>
<path d="M90.1549 50.485C92.1465 50.485 93.761 48.8705 93.761 46.879C93.761 44.8874 92.1465 43.2729 90.1549 43.2729C88.1633 43.2729 86.5488 44.8874 86.5488 46.879C86.5488 48.8705 88.1633 50.485 90.1549 50.485Z" fill="black"/>
<path d="M93.761 57.6971H86.5488V64.9093H93.761V57.6971Z" fill="black"/>
<path d="M90.1549 86.5458C92.1465 86.5458 93.761 84.9313 93.761 82.9397C93.761 80.9481 92.1465 79.3336 90.1549 79.3336C88.1633 79.3336 86.5488 80.9481 86.5488 82.9397C86.5488 84.9313 88.1633 86.5458 90.1549 86.5458Z" fill="black"/>
<path d="M86.5488 180.304V187.516H93.761V183.91C93.761 181.901 92.164 180.304 90.1549 180.304" fill="black"/>
<path d="M93.761 187.516H86.5488V194.728H93.761V187.516Z" fill="black"/>
<path d="M93.761 194.728H86.5488V201.94H93.761V194.728Z" fill="black"/>
<path d="M86.5488 230.789V238.001H90.1549C92.164 238.001 93.761 236.404 93.761 234.395C93.761 232.386 92.164 230.789 90.1549 230.789" fill="black"/>
<path d="M93.7578 7.21209H100.97V-6.10352e-05H97.3639C95.3548 -6.10352e-05 93.7578 1.59692 93.7578 3.60601" fill="black"/>
<path d="M100.97 7.21216H93.7578V14.4243H97.3639C99.373 14.4243 100.97 12.8273 100.97 10.8182" fill="black"/>
<path d="M93.7578 28.8486V36.0607H97.3639C99.373 36.0607 100.97 34.4637 100.97 32.4546C100.97 30.4455 99.373 28.8486 97.3639 28.8486" fill="black"/>
<path d="M100.97 57.6971H93.7578V64.9093H100.97V57.6971Z" fill="black"/>
<path d="M100.97 72.1215V64.9093H93.7578V68.5154C93.7578 70.5245 95.3548 72.1215 97.3639 72.1215" fill="black"/>
<path d="M93.7578 158.667H100.97V151.455H97.3639C95.3548 151.455 93.7578 153.052 93.7578 155.061" fill="black"/>
<path d="M100.97 158.667H93.7578V165.879H100.97V158.667Z" fill="black"/>
<path d="M100.97 165.879H93.7578V169.486C93.7578 171.495 95.3548 173.092 97.3639 173.092C99.373 173.092 100.97 171.495 100.97 169.486" fill="black"/>
<path d="M93.7578 194.728V201.94H97.3639C99.373 201.94 100.97 200.343 100.97 198.334C100.97 196.325 99.373 194.728 97.3639 194.728" fill="black"/>
<path d="M108.181 -6.10352e-05H100.969V7.21209H108.181V-6.10352e-05Z" fill="black"/>
<path d="M104.575 21.6364C106.566 21.6364 108.181 20.0219 108.181 18.0303C108.181 16.0388 106.566 14.4243 104.575 14.4243C102.583 14.4243 100.969 16.0388 100.969 18.0303C100.969 20.0219 102.583 21.6364 104.575 21.6364Z" fill="black"/>
<path d="M104.575 50.485C106.566 50.485 108.181 48.8705 108.181 46.879C108.181 44.8874 106.566 43.2729 104.575 43.2729C102.583 43.2729 100.969 44.8874 100.969 46.879C100.969 48.8705 102.583 50.485 104.575 50.485Z" fill="black"/>
<path d="M100.969 57.6971V64.9093H108.181V61.3032C108.181 59.2941 106.584 57.6971 104.575 57.6971" fill="black"/>
<path d="M108.181 64.9093H100.969V72.1215H104.575C106.584 72.1215 108.181 70.5245 108.181 68.5154" fill="black"/>
<path d="M100.969 151.455V158.667H104.575C106.584 158.667 108.181 157.07 108.181 155.061C108.181 153.052 106.584 151.455 104.575 151.455" fill="black"/>
<path d="M104.575 194.728C106.566 194.728 108.181 193.114 108.181 191.122C108.181 189.13 106.566 187.516 104.575 187.516C102.583 187.516 100.969 189.13 100.969 191.122C100.969 193.114 102.583 194.728 104.575 194.728Z" fill="black"/>
<path d="M100.969 209.152H108.181V205.546C108.181 203.537 106.584 201.94 104.575 201.94C102.566 201.94 100.969 203.537 100.969 205.546" fill="black"/>
<path d="M108.181 209.152H100.969V216.364H108.181V209.152Z" fill="black"/>
<path d="M108.181 223.577V216.365H100.969V219.971C100.969 221.98 102.566 223.577 104.575 223.577" fill="black"/>
<path d="M108.178 -6.10352e-05V7.21209H115.39V3.60601C115.39 1.59692 113.793 -6.10352e-05 111.784 -6.10352e-05" fill="black"/>
<path d="M115.39 14.4243V7.21216H108.178V10.8182C108.178 12.8273 109.775 14.4243 111.784 14.4243" fill="black"/>
<path d="M111.784 28.8486C113.775 28.8486 115.39 27.2341 115.39 25.2425C115.39 23.2509 113.775 21.6364 111.784 21.6364C109.792 21.6364 108.178 23.2509 108.178 25.2425C108.178 27.2341 109.792 28.8486 111.784 28.8486Z" fill="black"/>
<path d="M111.784 43.2728C113.775 43.2728 115.39 41.6583 115.39 39.6667C115.39 37.6752 113.775 36.0607 111.784 36.0607C109.792 36.0607 108.178 37.6752 108.178 39.6667C108.178 41.6583 109.792 43.2728 111.784 43.2728Z" fill="black"/>
<path d="M115.39 57.6972V50.485H111.784C109.775 50.485 108.178 52.082 108.178 54.0911C108.178 56.1002 109.775 57.6972 111.784 57.6972" fill="black"/>
<path d="M108.178 165.879H115.39V158.667H111.784C109.775 158.667 108.178 160.264 108.178 162.273" fill="black"/>
<path d="M115.39 165.879H108.178V169.486C108.178 171.495 109.775 173.092 111.784 173.092C113.793 173.092 115.39 171.495 115.39 169.486" fill="black"/>
<path d="M115.39 187.516V180.304H111.784C109.775 180.304 108.178 181.901 108.178 183.91C108.178 185.919 109.775 187.516 111.784 187.516" fill="black"/>
<path d="M115.39 201.94V194.728H111.784C109.775 194.728 108.178 196.325 108.178 198.334C108.178 200.343 109.775 201.94 111.784 201.94" fill="black"/>
<path d="M108.178 216.365V223.577H111.784C113.793 223.577 115.39 221.98 115.39 219.971C115.39 217.961 113.793 216.365 111.784 216.365" fill="black"/>
<path d="M111.784 238.001C113.775 238.001 115.39 236.386 115.39 234.395C115.39 232.403 113.775 230.789 111.784 230.789C109.792 230.789 108.178 232.403 108.178 234.395C108.178 236.386 109.792 238.001 111.784 238.001Z" fill="black"/>
<path d="M122.601 7.21216H115.389V14.4243H122.601V7.21216Z" fill="black"/>
<path d="M122.601 36.0607V28.8486H118.995C116.986 28.8486 115.389 30.4455 115.389 32.4546C115.389 34.4637 116.986 36.0607 118.995 36.0607" fill="black"/>
<path d="M115.389 50.485H122.601V46.879C122.601 44.8699 121.004 43.2729 118.995 43.2729C116.986 43.2729 115.389 44.8699 115.389 46.879" fill="black"/>
<path d="M122.601 50.485H115.389V57.6972H122.601V50.485Z" fill="black"/>
<path d="M122.601 72.1215V64.9093H118.995C116.986 64.9093 115.389 66.5063 115.389 68.5154C115.389 70.5245 116.986 72.1215 118.995 72.1215" fill="black"/>
<path d="M115.389 158.667V165.879H118.995C121.004 165.879 122.601 164.282 122.601 162.273C122.601 160.264 121.004 158.667 118.995 158.667" fill="black"/>
<path d="M115.389 180.304H122.601V173.092H118.995C116.986 173.092 115.389 174.689 115.389 176.698" fill="black"/>
<path d="M122.601 180.304H115.389V187.516H122.601V180.304Z" fill="black"/>
<path d="M122.601 187.516H115.389V194.728H122.601V187.516Z" fill="black"/>
<path d="M122.601 194.728H115.389V201.94H122.601V194.728Z" fill="black"/>
<path d="M122.601 201.94H115.389V209.152H122.601V201.94Z" fill="black"/>
<path d="M122.601 209.152H115.389V212.758C115.389 214.768 116.986 216.364 118.995 216.364C121.004 216.364 122.601 214.768 122.601 212.758" fill="black"/>
<path d="M129.822 7.21216H122.609V14.4243H129.822V7.21216Z" fill="black"/>
<path d="M129.822 21.6364V14.4243H122.609V18.0303C122.609 20.0394 124.206 21.6364 126.215 21.6364" fill="black"/>
<path d="M129.822 28.8486H122.609V36.0607H129.822V28.8486Z" fill="black"/>
<path d="M122.609 50.485V57.6972H129.822V54.0911C129.822 52.082 128.225 50.485 126.215 50.485" fill="black"/>
<path d="M129.822 57.6971H122.609V64.9093H129.822V57.6971Z" fill="black"/>
<path d="M129.822 64.9093H122.609V72.1215H129.822V64.9093Z" fill="black"/>
<path d="M129.822 72.1215H122.609V79.3336H129.822V72.1215Z" fill="black"/>
<path d="M122.609 79.3336H129.822V86.5458H126.215C124.206 86.5458 122.609 84.9488 122.609 82.9397V79.3336Z" fill="black"/>
<path d="M129.822 173.092H122.609V180.304H129.822V173.092Z" fill="black"/>
<path d="M122.609 187.516V194.728H126.215C128.225 194.728 129.822 193.131 129.822 191.122C129.822 189.113 128.225 187.516 126.215 187.516" fill="black"/>
<path d="M122.609 201.94V209.152H126.215C128.225 209.152 129.822 207.555 129.822 205.546C129.822 203.537 128.225 201.94 126.215 201.94" fill="black"/>
<path d="M122.609 223.577H129.822V216.365H126.215C124.206 216.365 122.609 217.961 122.609 219.971" fill="black"/>
<path d="M129.822 223.577H122.609V230.789H129.822V223.577Z" fill="black"/>
<path d="M129.822 238.001V230.789H122.609V234.395C122.609 236.404 124.206 238.001 126.215 238.001" fill="black"/>
<path d="M129.818 7.21209H137.031V3.60601C137.031 1.59692 135.434 -6.10352e-05 133.424 -6.10352e-05C131.415 -6.10352e-05 129.818 1.59692 129.818 3.60601" fill="black"/>
<path d="M137.031 7.21216H129.818V14.4243H137.031V7.21216Z" fill="black"/>
<path d="M137.031 14.4243H129.818V21.6364H137.031V14.4243Z" fill="black"/>
<path d="M137.031 21.6364H129.818V28.8486H137.031V21.6364Z" fill="black"/>
<path d="M137.031 28.8486H129.818V36.0607H133.424C135.434 36.0607 137.031 34.4637 137.031 32.4546" fill="black"/>
<path d="M133.424 50.485C135.416 50.485 137.031 48.8705 137.031 46.879C137.031 44.8874 135.416 43.2729 133.424 43.2729C131.433 43.2729 129.818 44.8874 129.818 46.879C129.818 48.8705 131.433 50.485 133.424 50.485Z" fill="black"/>
<path d="M129.818 72.1215V79.3336H137.031V75.7275C137.031 73.7184 135.434 72.1215 133.424 72.1215" fill="black"/>
<path d="M137.031 79.3336H129.818V86.5458H133.424C135.434 86.5458 137.031 84.9488 137.031 82.9397" fill="black"/>
<path d="M133.424 158.667C135.416 158.667 137.031 157.053 137.031 155.061C137.031 153.07 135.416 151.455 133.424 151.455C131.433 151.455 129.818 153.07 129.818 155.061C129.818 157.053 131.433 158.667 133.424 158.667Z" fill="black"/>
<path d="M129.818 173.092H137.031V169.486C137.031 167.476 135.434 165.879 133.424 165.879C131.415 165.879 129.818 167.476 129.818 169.486" fill="black"/>
<path d="M137.031 173.092H129.818V180.304H133.424C135.434 180.304 137.031 178.707 137.031 176.698" fill="black"/>
<path d="M133.424 201.94C135.416 201.94 137.031 200.326 137.031 198.334C137.031 196.342 135.416 194.728 133.424 194.728C131.433 194.728 129.818 196.342 129.818 198.334C129.818 200.326 131.433 201.94 133.424 201.94Z" fill="black"/>
<path d="M129.818 216.364H137.031V209.152H133.424C131.415 209.152 129.818 210.749 129.818 212.758" fill="black"/>
<path d="M137.031 216.365H129.818V223.577H137.031V216.365Z" fill="black"/>
<path d="M129.818 230.789V238.001H133.424C135.434 238.001 137.031 236.404 137.031 234.395C137.031 232.386 135.434 230.789 133.424 230.789" fill="black"/>
<path d="M137.029 14.4243V21.6364H144.241V18.0303C144.241 16.0212 142.644 14.4243 140.635 14.4243" fill="black"/>
<path d="M144.241 21.6364H137.029V28.8486H140.635C142.644 28.8486 144.241 27.2516 144.241 25.2425" fill="black"/>
<path d="M140.635 43.2728C142.627 43.2728 144.241 41.6583 144.241 39.6667C144.241 37.6752 142.627 36.0607 140.635 36.0607C138.644 36.0607 137.029 37.6752 137.029 39.6667C137.029 41.6583 138.644 43.2728 140.635 43.2728Z" fill="black"/>
<path d="M144.241 57.6972V50.485H140.635C138.626 50.485 137.029 52.082 137.029 54.0911C137.029 56.1002 138.626 57.6972 140.635 57.6972" fill="black"/>
<path d="M140.635 72.1215C142.627 72.1215 144.241 70.507 144.241 68.5154C144.241 66.5238 142.627 64.9093 140.635 64.9093C138.644 64.9093 137.029 66.5238 137.029 68.5154C137.029 70.507 138.644 72.1215 140.635 72.1215Z" fill="black"/>
<path d="M137.029 209.152H144.241V205.546C144.241 203.537 142.644 201.94 140.635 201.94C138.626 201.94 137.029 203.537 137.029 205.546" fill="black"/>
<path d="M144.241 209.152H137.029V216.364H144.241V209.152Z" fill="black"/>
<path d="M144.241 216.365H137.029V223.577H144.241V216.365Z" fill="black"/>
<path d="M144.241 223.577H137.029V227.183C137.029 229.192 138.626 230.789 140.635 230.789C142.644 230.789 144.241 229.192 144.241 227.183" fill="black"/>
<path d="M144.238 50.485H151.45V46.879C151.45 44.8699 149.853 43.2729 147.844 43.2729C145.835 43.2729 144.238 44.8699 144.238 46.879" fill="black"/>
<path d="M151.45 50.485H144.238V57.6972H147.844C149.853 57.6972 151.45 56.1002 151.45 54.0911" fill="black"/>
<path d="M151.45 79.3336V72.1215H147.844C145.835 72.1215 144.238 73.7184 144.238 75.7275C144.238 77.7366 145.835 79.3336 147.844 79.3336" fill="black"/>
<path d="M151.45 201.94V194.728H147.844C145.835 194.728 144.238 196.325 144.238 198.334C144.238 200.343 145.835 201.94 147.844 201.94" fill="black"/>
<path d="M151.45 209.152H144.238V216.364H151.45V209.152Z" fill="black"/>
<path d="M158.661 7.21209V-6.10352e-05H155.055C153.046 -6.10352e-05 151.449 1.59692 151.449 3.60601C151.449 5.61511 153.046 7.21209 155.055 7.21209" fill="black"/>
<path d="M151.449 21.6364H158.661V18.0303C158.661 16.0212 157.064 14.4243 155.055 14.4243C153.046 14.4243 151.449 16.0212 151.449 18.0303" fill="black"/>
<path d="M158.661 21.6364H151.449V25.2425C151.449 27.2516 153.046 28.8486 155.055 28.8486C157.064 28.8486 158.661 27.2516 158.661 25.2425" fill="black"/>
<path d="M155.055 64.9093C157.047 64.9093 158.661 63.2948 158.661 61.3032C158.661 59.3116 157.047 57.6971 155.055 57.6971C153.064 57.6971 151.449 59.3116 151.449 61.3032C151.449 63.2948 153.064 64.9093 155.055 64.9093Z" fill="black"/>
<path d="M151.449 72.1215V79.3336H158.661V75.7275C158.661 73.7184 157.064 72.1215 155.055 72.1215" fill="black"/>
<path d="M158.661 79.3336H151.449V86.5458H158.661V79.3336Z" fill="black"/>
<path d="M158.661 86.5458H151.449V93.758H158.661V86.5458Z" fill="black"/>
<path d="M158.661 93.7579H151.449V100.97H158.661V93.7579Z" fill="black"/>
<path d="M158.661 100.97H151.449V108.182H158.661V100.97Z" fill="black"/>
<path d="M158.661 115.394V108.182H151.449V111.788C151.449 113.797 153.046 115.394 155.055 115.394" fill="black"/>
<path d="M151.449 129.819H158.661V122.606H155.055C153.046 122.606 151.449 124.203 151.449 126.213" fill="black"/>
<path d="M158.661 129.819H151.449V133.425C151.449 135.434 153.046 137.031 155.055 137.031C157.064 137.031 158.661 135.434 158.661 133.425" fill="black"/>
<path d="M155.055 151.455C157.047 151.455 158.661 149.841 158.661 147.849C158.661 145.858 157.047 144.243 155.055 144.243C153.064 144.243 151.449 145.858 151.449 147.849C151.449 149.841 153.064 151.455 155.055 151.455Z" fill="black"/>
<path d="M151.449 194.728V201.94H158.661V198.334C158.661 196.325 157.064 194.728 155.055 194.728" fill="black"/>
<path d="M158.661 201.94H151.449V209.152H158.661V201.94Z" fill="black"/>
<path d="M158.661 209.152H151.449V216.364H155.055C157.064 216.364 158.661 214.768 158.661 212.758" fill="black"/>
<path d="M165.88 -6.10352e-05H158.668V7.21209H165.88V-6.10352e-05Z" fill="black"/>
<path d="M158.668 50.485H165.88V46.879C165.88 44.8699 164.283 43.2729 162.274 43.2729C160.265 43.2729 158.668 44.8699 158.668 46.879" fill="black"/>
<path d="M165.88 57.6972V50.485H158.668V54.0911C158.668 56.1002 160.265 57.6972 162.274 57.6972" fill="black"/>
<path d="M165.88 72.1215V64.9093H162.274C160.265 64.9093 158.668 66.5063 158.668 68.5154C158.668 70.5245 160.265 72.1215 162.274 72.1215" fill="black"/>
<path d="M158.668 86.5458V93.758H165.88V90.1519C165.88 88.1428 164.283 86.5458 162.274 86.5458" fill="black"/>
<path d="M165.88 93.7579H158.668V100.97H165.88V93.7579Z" fill="black"/>
<path d="M165.88 100.97H158.668V108.182H165.88V100.97Z" fill="black"/>
<path d="M165.88 108.182H158.668V115.394H165.88V108.182Z" fill="black"/>
<path d="M158.668 122.606V129.819H162.274C164.283 129.819 165.88 128.222 165.88 126.213C165.88 124.203 164.283 122.606 162.274 122.606" fill="black"/>
<path d="M158.668 158.667H165.88V155.061C165.88 153.052 164.283 151.455 162.274 151.455C160.265 151.455 158.668 153.052 158.668 155.061" fill="black"/>
<path d="M165.88 158.667H158.668V165.879H165.88V158.667Z" fill="black"/>
<path d="M165.88 165.879H158.668V173.092H165.88V165.879Z" fill="black"/>
<path d="M165.88 173.092H158.668V180.304H165.88V173.092Z" fill="black"/>
<path d="M165.88 180.304H158.668V187.516H165.88V180.304Z" fill="black"/>
<path d="M165.88 194.728V187.516H158.668V191.122C158.668 193.131 160.265 194.728 162.274 194.728" fill="black"/>
<path d="M158.668 201.94V209.152H162.274C164.283 209.152 165.88 207.555 165.88 205.546C165.88 203.537 164.283 201.94 162.274 201.94" fill="black"/>
<path d="M158.668 230.789H165.88V227.183C165.88 225.174 164.283 223.577 162.274 223.577C160.265 223.577 158.668 225.174 158.668 227.183" fill="black"/>
<path d="M165.88 238.001V230.789H158.668V234.395C158.668 236.404 160.265 238.001 162.274 238.001" fill="black"/>
<path d="M173.091 -6.10352e-05H165.879V7.21209H173.091V-6.10352e-05Z" fill="black"/>
<path d="M165.879 21.6364H173.091V18.0303C173.091 16.0212 171.494 14.4243 169.485 14.4243C167.476 14.4243 165.879 16.0212 165.879 18.0303" fill="black"/>
<path d="M173.091 21.6364H165.879V28.8486H173.091V21.6364Z" fill="black"/>
<path d="M173.091 28.8486H165.879V36.0607H173.091V28.8486Z" fill="black"/>
<path d="M173.091 43.2728V36.0607H165.879V39.6667C165.879 41.6758 167.476 43.2728 169.485 43.2728" fill="black"/>
<path d="M165.879 50.485V57.6972H169.485C171.494 57.6972 173.091 56.1002 173.091 54.0911C173.091 52.082 171.494 50.485 169.485 50.485" fill="black"/>
<path d="M165.879 64.9093V72.1215H173.091V68.5154C173.091 66.5063 171.494 64.9093 169.485 64.9093" fill="black"/>
<path d="M173.091 79.3336V72.1215H165.879V75.7275C165.879 77.7366 167.476 79.3336 169.485 79.3336" fill="black"/>
<path d="M173.091 93.7579H165.879V100.97H173.091V93.7579Z" fill="black"/>
<path d="M173.091 100.97H165.879V108.182H173.091V100.97Z" fill="black"/>
<path d="M173.091 108.182H165.879V115.394H173.091V108.182Z" fill="black"/>
<path d="M173.091 115.394H165.879V119C165.879 121.01 167.476 122.607 169.485 122.607C171.494 122.607 173.091 121.01 173.091 119" fill="black"/>
<path d="M173.091 137.031V129.819H169.485C167.476 129.819 165.879 131.416 165.879 133.425C165.879 135.434 167.476 137.031 169.485 137.031" fill="black"/>
<path d="M173.091 151.455V144.243H169.485C167.476 144.243 165.879 145.84 165.879 147.849C165.879 149.858 167.476 151.455 169.485 151.455" fill="black"/>
<path d="M165.879 158.667V165.879H169.485C171.494 165.879 173.091 164.282 173.091 162.273C173.091 160.264 171.494 158.667 169.485 158.667" fill="black"/>
<path d="M173.091 180.304H165.879V187.516H173.091V180.304Z" fill="black"/>
<path d="M173.091 187.516H165.879V194.728H173.091V187.516Z" fill="black"/>
<path d="M173.091 201.94V194.728H165.879V198.334C165.879 200.343 167.476 201.94 169.485 201.94" fill="black"/>
<path d="M169.485 223.577C171.477 223.577 173.091 221.962 173.091 219.971C173.091 217.979 171.477 216.365 169.485 216.365C167.493 216.365 165.879 217.979 165.879 219.971C165.879 221.962 167.493 223.577 169.485 223.577Z" fill="black"/>
<path d="M165.879 230.789V238.001H169.485C171.494 238.001 173.091 236.404 173.091 234.395C173.091 232.386 171.494 230.789 169.485 230.789" fill="black"/>
<path d="M173.088 -6.10352e-05V7.21209H180.3V3.60601C180.3 1.59692 178.703 -6.10352e-05 176.694 -6.10352e-05" fill="black"/>
<path d="M180.3 7.21216H173.088V10.8182C173.088 12.8273 174.685 14.4243 176.694 14.4243C178.703 14.4243 180.3 12.8273 180.3 10.8182" fill="black"/>
<path d="M173.088 21.6364V28.8486H180.3V25.2425C180.3 23.2334 178.703 21.6364 176.694 21.6364" fill="black"/>
<path d="M180.3 28.8486H173.088V36.0607H180.3V28.8486Z" fill="black"/>
<path d="M180.3 36.0607H173.088V43.2728H180.3V36.0607Z" fill="black"/>
<path d="M180.3 43.2729H173.088V46.879C173.088 48.8881 174.685 50.485 176.694 50.485C178.703 50.485 180.3 48.8881 180.3 46.879" fill="black"/>
<path d="M173.088 72.1215V79.3336H176.694C178.703 79.3336 180.3 77.7366 180.3 75.7275C180.3 73.7184 178.703 72.1215 176.694 72.1215" fill="black"/>
<path d="M173.088 93.758H180.3V90.1519C180.3 88.1428 178.703 86.5458 176.694 86.5458C174.685 86.5458 173.088 88.1428 173.088 90.1519" fill="black"/>
<path d="M180.3 93.7579H173.088V100.97H180.3V93.7579Z" fill="black"/>
<path d="M180.3 100.97H173.088V108.182H176.694C178.703 108.182 180.3 106.585 180.3 104.576" fill="black"/>
<path d="M173.088 129.819V137.031H180.3V133.425C180.3 131.416 178.703 129.819 176.694 129.819" fill="black"/>
<path d="M180.3 137.031H173.088V144.243H180.3V137.031Z" fill="black"/>
<path d="M180.3 144.243H173.088V151.455H176.694C178.703 151.455 180.3 149.858 180.3 147.849" fill="black"/>
<path d="M173.088 173.092H180.3V165.879H176.694C174.685 165.879 173.088 167.476 173.088 169.486" fill="black"/>
<path d="M180.3 173.092H173.088V180.304H180.3V173.092Z" fill="black"/>
<path d="M180.3 180.304H173.088V187.516H180.3V180.304Z" fill="black"/>
<path d="M180.3 187.516H173.088V194.728H180.3V187.516Z" fill="black"/>
<path d="M180.3 194.728H173.088V201.94H180.3V194.728Z" fill="black"/>
<path d="M180.3 201.94H173.088V209.152H180.3V201.94Z" fill="black"/>
<path d="M180.3 209.152H173.088V212.758C173.088 214.768 174.685 216.364 176.694 216.364C178.703 216.364 180.3 214.768 180.3 212.758" fill="black"/>
<path d="M176.694 230.789C178.686 230.789 180.3 229.174 180.3 227.183C180.3 225.191 178.686 223.577 176.694 223.577C174.702 223.577 173.088 225.191 173.088 227.183C173.088 229.174 174.702 230.789 176.694 230.789Z" fill="black"/>
<path d="M183.905 64.9093C185.896 64.9093 187.511 63.2948 187.511 61.3032C187.511 59.3116 185.896 57.6971 183.905 57.6971C181.913 57.6971 180.299 59.3116 180.299 61.3032C180.299 63.2948 181.913 64.9093 183.905 64.9093Z" fill="black"/>
<path d="M187.511 93.7579H180.299V100.97H187.511V93.7579Z" fill="black"/>
<path d="M180.299 115.394H187.511V108.182H183.905C181.896 108.182 180.299 109.779 180.299 111.788" fill="black"/>
<path d="M187.511 115.394H180.299V122.607H187.511V115.394Z" fill="black"/>
<path d="M187.511 122.606H180.299V126.213C180.299 128.222 181.896 129.819 183.905 129.819C185.914 129.819 187.511 128.222 187.511 126.213" fill="black"/>
<path d="M187.511 165.879H180.299V173.092H187.511V165.879Z" fill="black"/>
<path d="M187.511 173.092H180.299V180.304H187.511V173.092Z" fill="black"/>
<path d="M187.511 201.94H180.299V209.152H187.511V201.94Z" fill="black"/>
<path d="M187.511 223.577V216.365H183.905C181.896 216.365 180.299 217.961 180.299 219.971C180.299 221.98 181.896 223.577 183.905 223.577" fill="black"/>
<path d="M194.722 93.7579H187.51V100.97H194.722V93.7579Z" fill="black"/>
<path d="M194.722 108.182H187.51V115.394H194.722V108.182Z" fill="black"/>
<path d="M187.51 137.031H194.722V133.425C194.722 131.416 193.125 129.819 191.116 129.819C189.107 129.819 187.51 131.416 187.51 133.425" fill="black"/>
<path d="M194.722 144.243V137.031H187.51V140.637C187.51 142.646 189.107 144.243 191.116 144.243" fill="black"/>
<path d="M187.51 165.879H194.722V158.667H191.116C189.107 158.667 187.51 160.264 187.51 162.273" fill="black"/>
<path d="M194.722 165.879H187.51V173.092H194.722V165.879Z" fill="black"/>
<path d="M194.722 173.092H187.51V180.304H194.722V173.092Z" fill="black"/>
<path d="M191.116 194.728C193.107 194.728 194.722 193.114 194.722 191.122C194.722 189.13 193.107 187.516 191.116 187.516C189.124 187.516 187.51 189.13 187.51 191.122C187.51 193.114 189.124 194.728 191.116 194.728Z" fill="black"/>
<path d="M194.722 201.94H187.51V209.152H194.722V201.94Z" fill="black"/>
<path d="M194.722 216.365H187.51V223.577H194.722V216.365Z" fill="black"/>
<path d="M201.941 64.9093V57.6971H198.335C196.325 57.6971 194.729 59.2941 194.729 61.3032C194.729 63.3123 196.325 64.9093 198.335 64.9093" fill="black"/>
<path d="M194.729 79.3336H201.941V75.7275C201.941 73.7184 200.344 72.1215 198.335 72.1215C196.325 72.1215 194.729 73.7184 194.729 75.7275" fill="black"/>
<path d="M201.941 79.3336H194.729V82.9397C194.729 84.9488 196.325 86.5458 198.335 86.5458C200.344 86.5458 201.941 84.9488 201.941 82.9397" fill="black"/>
<path d="M201.941 93.7579H194.729V100.97H201.941V93.7579Z" fill="black"/>
<path d="M194.729 108.182V115.394H198.335C200.344 115.394 201.941 113.797 201.941 111.788C201.941 109.779 200.344 108.182 198.335 108.182" fill="black"/>
<path d="M201.941 137.031H194.729V144.243H201.941V137.031Z" fill="black"/>
<path d="M201.941 158.667H194.729V165.879H201.941V158.667Z" fill="black"/>
<path d="M201.941 165.879H194.729V173.092H201.941V165.879Z" fill="black"/>
<path d="M201.941 173.092H194.729V180.304H201.941V173.092Z" fill="black"/>
<path d="M201.941 201.94H194.729V209.152H201.941V201.94Z" fill="black"/>
<path d="M201.941 209.152H194.729V216.364H201.941V209.152Z" fill="black"/>
<path d="M201.941 216.365H194.729V223.577H198.335C200.344 223.577 201.941 221.98 201.941 219.971" fill="black"/>
<path d="M209.152 57.6971H201.939V64.9093H209.152V57.6971Z" fill="black"/>
<path d="M201.939 93.758H209.152V86.5458H205.546C203.536 86.5458 201.939 88.1428 201.939 90.1519" fill="black"/>
<path d="M209.152 93.7579H201.939V100.97H209.152V93.7579Z" fill="black"/>
<path d="M209.152 129.819V122.606H205.546C203.536 122.606 201.939 124.203 201.939 126.213C201.939 128.222 203.536 129.819 205.546 129.819" fill="black"/>
<path d="M209.152 137.031H201.939V144.243H209.152V137.031Z" fill="black"/>
<path d="M209.152 151.455V144.243H201.939V147.849C201.939 149.858 203.536 151.455 205.546 151.455" fill="black"/>
<path d="M201.939 158.667V165.879H209.152V162.273C209.152 160.264 207.555 158.667 205.546 158.667" fill="black"/>
<path d="M209.152 165.879H201.939V173.092H209.152V165.879Z" fill="black"/>
<path d="M209.152 173.092H201.939V180.304H209.152V173.092Z" fill="black"/>
<path d="M209.152 180.304H201.939V187.516H209.152V180.304Z" fill="black"/>
<path d="M209.152 187.516H201.939V194.728H209.152V187.516Z" fill="black"/>
<path d="M209.152 194.728H201.939V201.94H209.152V194.728Z" fill="black"/>
<path d="M209.152 201.94H201.939V209.152H205.546C207.555 209.152 209.152 207.555 209.152 205.546" fill="black"/>
<path d="M209.152 238.001V230.789H205.546C203.536 230.789 201.939 232.386 201.939 234.395C201.939 236.404 203.536 238.001 205.546 238.001" fill="black"/>
<path d="M209.148 57.6971V64.9093H216.361V61.3032C216.361 59.2941 214.764 57.6971 212.755 57.6971" fill="black"/>
<path d="M216.361 64.9093H209.148V72.1215H216.361V64.9093Z" fill="black"/>
<path d="M216.361 72.1215H209.148V79.3336H216.361V72.1215Z" fill="black"/>
<path d="M216.361 79.3336H209.148V86.5458H216.361V79.3336Z" fill="black"/>
<path d="M216.361 86.5458H209.148V93.758H216.361V86.5458Z" fill="black"/>
<path d="M216.361 93.7579H209.148V100.97H216.361V93.7579Z" fill="black"/>
<path d="M216.361 100.97H209.148V104.576C209.148 106.585 210.745 108.182 212.755 108.182C214.764 108.182 216.361 106.585 216.361 104.576" fill="black"/>
<path d="M209.148 122.607H216.361V115.394H212.755C210.745 115.394 209.148 116.991 209.148 119" fill="black"/>
<path d="M216.361 122.606H209.148V129.819H212.755C214.764 129.819 216.361 128.222 216.361 126.213" fill="black"/>
<path d="M216.361 137.031H209.148V144.243H216.361V137.031Z" fill="black"/>
<path d="M216.361 144.243H209.148V151.455H212.755C214.764 151.455 216.361 149.858 216.361 147.849" fill="black"/>
<path d="M216.361 173.092H209.148V180.304H216.361V173.092Z" fill="black"/>
<path d="M216.361 180.304H209.148V187.516H216.361V180.304Z" fill="black"/>
<path d="M216.361 194.728H209.148V201.94H216.361V194.728Z" fill="black"/>
<path d="M216.361 216.364V209.152H212.755C210.745 209.152 209.148 210.749 209.148 212.758C209.148 214.768 210.745 216.364 212.755 216.364" fill="black"/>
<path d="M216.361 230.789H209.148V238.001H216.361V230.789Z" fill="black"/>
<path d="M223.572 115.394H216.359V122.607H223.572V115.394Z" fill="black"/>
<path d="M216.359 137.031H223.572V133.425C223.572 131.416 221.975 129.819 219.965 129.819C217.956 129.819 216.359 131.416 216.359 133.425" fill="black"/>
<path d="M223.572 137.031H216.359V144.243H223.572V137.031Z" fill="black"/>
<path d="M216.359 158.667H223.572V155.061C223.572 153.052 221.975 151.455 219.965 151.455C217.956 151.455 216.359 153.052 216.359 155.061" fill="black"/>
<path d="M223.572 165.879V158.667H216.359V162.273C216.359 164.282 217.956 165.879 219.965 165.879" fill="black"/>
<path d="M216.359 173.092V180.304H223.572V176.698C223.572 174.689 221.975 173.092 219.965 173.092" fill="black"/>
<path d="M223.572 180.304H216.359V187.516H223.572V180.304Z" fill="black"/>
<path d="M223.572 194.728H216.359V201.94H223.572V194.728Z" fill="black"/>
<path d="M223.572 201.94H216.359V209.152H223.572V201.94Z" fill="black"/>
<path d="M223.572 209.152H216.359V216.364H223.572V209.152Z" fill="black"/>
<path d="M223.572 216.365H216.359V223.577H223.572V216.365Z" fill="black"/>
<path d="M223.572 223.577H216.359V230.789H223.572V223.577Z" fill="black"/>
<path d="M223.572 230.789H216.359V238.001H223.572V230.789Z" fill="black"/>
<path d="M227.184 64.9093C229.176 64.9093 230.79 63.2948 230.79 61.3032C230.79 59.3116 229.176 57.6971 227.184 57.6971C225.193 57.6971 223.578 59.3116 223.578 61.3032C223.578 63.2948 225.193 64.9093 227.184 64.9093Z" fill="black"/>
<path d="M223.578 93.758H230.79V90.1519C230.79 88.1428 229.193 86.5458 227.184 86.5458C225.175 86.5458 223.578 88.1428 223.578 90.1519" fill="black"/>
<path d="M230.79 100.97V93.7579H223.578V97.3639C223.578 99.373 225.175 100.97 227.184 100.97" fill="black"/>
<path d="M223.578 115.394V122.607H230.79V119C230.79 116.991 229.193 115.394 227.184 115.394" fill="black"/>
<path d="M230.79 129.819V122.606H223.578V126.213C223.578 128.222 225.175 129.819 227.184 129.819" fill="black"/>
<path d="M230.79 137.031H223.578V144.243H230.79V137.031Z" fill="black"/>
<path d="M230.79 158.667H223.578V165.879H230.79V158.667Z" fill="black"/>
<path d="M223.578 180.304V187.516H230.79V183.91C230.79 181.901 229.193 180.304 227.184 180.304" fill="black"/>
<path d="M230.79 187.516H223.578V194.728H230.79V187.516Z" fill="black"/>
<path d="M230.79 194.728H223.578V201.94H230.79V194.728Z" fill="black"/>
<path d="M230.79 201.94H223.578V209.152H230.79V201.94Z" fill="black"/>
<path d="M230.79 209.152H223.578V216.364H230.79V209.152Z" fill="black"/>
<path d="M230.79 216.365H223.578V223.577H230.79V216.365Z" fill="black"/>
<path d="M230.79 223.577H223.578V230.789H230.79V223.577Z" fill="black"/>
<path d="M230.79 230.789H223.578V238.001H227.184C229.193 238.001 230.79 236.404 230.79 234.395" fill="black"/>
<path d="M230.789 93.7579V100.97H234.395C236.404 100.97 238.001 99.373 238.001 97.3639C238.001 95.3548 236.404 93.7579 234.395 93.7579" fill="black"/>
<path d="M234.395 115.394C236.387 115.394 238.001 113.78 238.001 111.788C238.001 109.797 236.387 108.182 234.395 108.182C232.404 108.182 230.789 109.797 230.789 111.788C230.789 113.78 232.404 115.394 234.395 115.394Z" fill="black"/>
<path d="M230.789 122.606V129.819H238.001V126.213C238.001 124.203 236.404 122.606 234.395 122.606" fill="black"/>
<path d="M238.001 129.819H230.789V137.031H238.001V129.819Z" fill="black"/>
<path d="M238.001 137.031H230.789V144.243H234.395C236.404 144.243 238.001 142.646 238.001 140.637" fill="black"/>
<path d="M230.789 158.667V165.879H238.001V162.273C238.001 160.264 236.404 158.667 234.395 158.667" fill="black"/>
<path d="M238.001 165.879H230.789V173.092H238.001V165.879Z" fill="black"/>
<path d="M238.001 173.092H230.789V176.698C230.789 178.707 232.386 180.304 234.395 180.304C236.404 180.304 238.001 178.707 238.001 176.698" fill="black"/>
<path d="M230.789 194.728V201.94H238.001V198.334C238.001 196.325 236.404 194.728 234.395 194.728" fill="black"/>
<path d="M238.001 201.94H230.789V209.152H234.395C236.404 209.152 238.001 207.555 238.001 205.546" fill="black"/>
<path d="M-0.00195312 18.0304V32.4547C-0.00195312 42.3971 8.08596 50.4851 18.0284 50.4851H32.4527C42.3952 50.4851 50.4831 42.3971 50.4831 32.4547V18.0304C50.4831 8.08791 42.3952 0 32.4527 0H18.0284C8.08596 0 -0.00195312 8.08791 -0.00195312 18.0304ZM18.0284 7.21215H32.4527C38.4285 7.21215 43.271 12.0546 43.271 18.0304V32.4547C43.271 38.4305 38.4285 43.2729 32.4527 43.2729H18.0284C12.0526 43.2729 7.2102 38.4305 7.2102 32.4547V18.0304C7.2102 12.0546 12.0526 7.21215 18.0284 7.21215Z" fill="black"/>
<path d="M25.2362 36.0607C31.2109 36.0607 36.0544 31.2172 36.0544 25.2425C36.0544 19.2677 31.2109 14.4243 25.2362 14.4243C19.2615 14.4243 14.418 19.2677 14.418 25.2425C14.418 31.2172 19.2615 36.0607 25.2362 36.0607Z" fill="black"/>
<path d="M219.964 -6.10352e-05H205.54C195.598 -6.10352e-05 187.51 8.08785 187.51 18.0303V32.4546C187.51 42.3971 195.598 50.485 205.54 50.485H219.964C229.907 50.485 237.995 42.3971 237.995 32.4546V18.0303C237.995 8.08785 229.907 -6.10352e-05 219.964 -6.10352e-05ZM230.783 18.0303V32.4546C230.783 38.4304 225.94 43.2729 219.964 43.2729H205.54C199.564 43.2729 194.722 38.4304 194.722 32.4546V18.0303C194.722 12.0545 199.564 7.21209 205.54 7.21209H219.964C225.94 7.21209 230.783 12.0545 230.783 18.0303Z" fill="black"/>
<path d="M212.758 36.0607C218.732 36.0607 223.576 31.2172 223.576 25.2425C223.576 19.2677 218.732 14.4243 212.758 14.4243C206.783 14.4243 201.939 19.2677 201.939 25.2425C201.939 31.2172 206.783 36.0607 212.758 36.0607Z" fill="black"/>
<path d="M18.0284 238.001H32.4527C42.3952 238.001 50.4831 229.913 50.4831 219.971V205.546C50.4831 195.604 42.3952 187.516 32.4527 187.516H18.0284C8.08596 187.516 -0.00195312 195.604 -0.00195312 205.546V219.971C-0.00195312 229.913 8.08596 238.001 18.0284 238.001ZM7.2102 219.971V205.546C7.2102 199.571 12.0526 194.728 18.0284 194.728H32.4527C38.4285 194.728 43.271 199.571 43.271 205.546V219.971C43.271 225.946 38.4285 230.789 32.4527 230.789H18.0284C12.0526 230.789 7.2102 225.946 7.2102 219.971Z" fill="black"/>
<path d="M25.2362 223.577C31.2109 223.577 36.0544 218.733 36.0544 212.758C36.0544 206.784 31.2109 201.94 25.2362 201.94C19.2615 201.94 14.418 206.784 14.418 212.758C14.418 218.733 19.2615 223.577 25.2362 223.577Z" fill="black"/>
<path fill-rule="evenodd" clip-rule="evenodd" d="M122.548 100.237C122.212 99.6778 121.685 99.1507 121.126 98.8138C119.131 97.5981 116.607 98.2849 115.42 100.227L98.5104 128.434C98.0187 129.191 97.9316 130.005 97.9316 130.563C97.9316 132.865 99.7962 134.73 102.098 134.73H135.935C136.675 134.73 137.427 134.527 138.018 134.178C140.037 133.041 140.653 130.408 139.463 128.455L122.548 100.237ZM131.824 128.268H106.21L119.017 106.923L131.824 128.268Z" fill="black"/>
<path d="M41.5 280.501V278.501H45C45.8285 278.501 46.5 277.829 46.5 277.001V273.501H48.5C48.5 274.634 48.4999 276.088 48.5 277.5C48.5 279.157 47.1566 280.501 45.4992 280.501C44.0877 280.501 42.6333 280.501 41.5 280.501ZM35.5 280.501C34.3664 280.501 32.9115 280.501 31.4995 280.501C29.843 280.501 28.5001 279.158 28.5 277.502C28.5 276.09 28.5 274.635 28.5 273.501H30.5V277.001C30.5 277.829 31.1716 278.501 32 278.501H35.5V280.501ZM41.5 260.501C42.6334 260.501 44.0877 260.501 45.4993 260.501C47.1566 260.501 48.5 261.845 48.5 263.502C48.4999 264.914 48.5 266.368 48.5 267.501H46.5V264.001C46.5 263.173 45.8285 262.501 45 262.501H41.5V260.501ZM35.5 260.501V262.501H32C31.1716 262.501 30.5 263.173 30.5 264.001V267.501H28.5C28.5 266.367 28.4999 264.912 28.5 263.5C28.5 261.843 29.8428 260.501 31.4991 260.501C32.9112 260.501 34.3663 260.501 35.5 260.501Z" fill="#0A0A0B"/>
<path d="M66.3339 277.145C63.5079 277.145 61.7079 275.453 61.5459 272.879H63.0579C63.2199 274.625 64.3719 275.759 66.3339 275.759C68.0799 275.759 69.3579 275.093 69.3579 273.563C69.3579 270.323 61.9779 272.105 61.9779 267.605C61.9779 265.607 63.7239 264.257 66.2439 264.257C68.7639 264.257 70.5099 265.715 70.6899 267.983H69.1779C69.0339 266.561 67.9359 265.643 66.2439 265.643C64.5519 265.643 63.5259 266.399 63.5259 267.605C63.5259 270.827 70.9419 268.829 70.9419 273.563C70.9419 275.849 68.9799 277.145 66.3339 277.145ZM76.856 277.145C73.994 277.145 72.446 274.895 72.446 272.465C72.446 270.035 73.994 267.785 76.856 267.785C78.89 267.785 80.708 268.973 80.978 270.989H79.556C79.376 269.891 78.242 269.081 76.874 269.081C74.894 269.081 73.94 270.611 73.94 272.465C73.94 274.319 74.912 275.849 76.874 275.849C78.242 275.849 79.232 275.165 79.556 274.067H80.96C80.654 275.921 79.16 277.145 76.856 277.145ZM86.7521 277.145C83.9261 277.145 82.3781 275.111 82.3781 272.465C82.3781 269.819 83.9261 267.785 86.7521 267.785C87.9581 267.785 89.1821 268.397 89.7581 269.261V267.929H91.1981V277.001H89.7581V275.651C89.3441 276.497 88.1201 277.145 86.7521 277.145ZM83.8721 272.465C83.8721 274.517 85.0601 275.849 86.8781 275.849C88.6961 275.849 89.8841 274.517 89.8841 272.465C89.8841 270.413 88.6961 269.081 86.8781 269.081C85.0601 269.081 83.8721 270.413 83.8721 272.465ZM93.9412 277.001V267.929H95.3812V269.675C95.8672 268.415 96.9832 267.785 98.3872 267.785C100.439 267.785 101.771 269.243 101.771 271.457V277.001H100.331V271.691C100.331 270.143 99.4312 269.099 98.0632 269.099C96.4972 269.099 95.3812 270.341 95.3812 272.105V277.001H93.9412ZM109.128 265.031H110.568V267.929H113.358V269.207H110.568V274.121C110.568 275.129 111.144 275.723 112.026 275.723H113.358V277.001H111.972C110.226 277.001 109.128 275.921 109.128 274.157V269.207H107.238V267.929H109.128V265.031ZM119.048 277.145C116.366 277.145 114.44 275.183 114.44 272.465C114.44 269.729 116.366 267.785 119.048 267.785C121.748 267.785 123.674 269.729 123.674 272.465C123.674 275.183 121.748 277.145 119.048 277.145ZM115.916 272.465C115.916 274.445 117.194 275.849 119.048 275.849C120.92 275.849 122.198 274.445 122.198 272.465C122.198 270.485 120.92 269.081 119.048 269.081C117.194 269.081 115.916 270.485 115.916 272.465ZM133.861 277.145C131.035 277.145 129.487 275.111 129.487 272.465C129.487 269.819 131.035 267.785 133.861 267.785C135.139 267.785 136.327 268.433 136.867 269.405V264.203H138.307V277.001H136.867V275.507C136.327 276.497 135.139 277.145 133.861 277.145ZM130.981 272.465C130.981 274.517 132.169 275.849 133.987 275.849C135.805 275.849 136.993 274.517 136.993 272.465C136.993 270.413 135.805 269.081 133.987 269.081C132.169 269.081 130.981 270.413 130.981 272.465ZM145.029 277.145C142.347 277.145 140.421 275.183 140.421 272.465C140.421 269.729 142.347 267.785 145.029 267.785C147.729 267.785 149.655 269.729 149.655 272.465C149.655 275.183 147.729 277.145 145.029 277.145ZM141.897 272.465C141.897 274.445 143.175 275.849 145.029 275.849C146.901 275.849 148.179 274.445 148.179 272.465C148.179 270.485 146.901 269.081 145.029 269.081C143.175 269.081 141.897 270.485 141.897 272.465ZM153.468 277.001L150.714 267.929H152.154L154.152 275.129L156.384 267.929H157.788L160.002 275.129L161.982 267.929H163.44L160.686 277.001H159.3L157.068 269.783L154.854 277.001H153.468ZM165.238 277.001V267.929H166.678V269.675C167.164 268.415 168.28 267.785 169.684 267.785C171.736 267.785 173.068 269.243 173.068 271.457V277.001H171.628V271.691C171.628 270.143 170.728 269.099 169.36 269.099C167.794 269.099 166.678 270.341 166.678 272.105V277.001H165.238ZM175.68 277.001V264.203H177.12V277.001H175.68ZM183.859 277.145C181.177 277.145 179.251 275.183 179.251 272.465C179.251 269.729 181.177 267.785 183.859 267.785C186.559 267.785 188.485 269.729 188.485 272.465C188.485 275.183 186.559 277.145 183.859 277.145ZM180.727 272.465C180.727 274.445 182.005 275.849 183.859 275.849C185.731 275.849 187.009 274.445 187.009 272.465C187.009 270.485 185.731 269.081 183.859 269.081C182.005 269.081 180.727 270.485 180.727 272.465ZM194.348 277.145C191.522 277.145 189.974 275.111 189.974 272.465C189.974 269.819 191.522 267.785 194.348 267.785C195.554 267.785 196.778 268.397 197.354 269.261V267.929H198.794V277.001H197.354V275.651C196.94 276.497 195.716 277.145 194.348 277.145ZM191.468 272.465C191.468 274.517 192.656 275.849 194.474 275.849C196.292 275.849 197.48 274.517 197.48 272.465C197.48 270.413 196.292 269.081 194.474 269.081C192.656 269.081 191.468 270.413 191.468 272.465ZM205.299 277.145C202.473 277.145 200.925 275.111 200.925 272.465C200.925 269.819 202.473 267.785 205.299 267.785C206.577 267.785 207.765 268.433 208.305 269.405V264.203H209.745V277.001H208.305V275.507C207.765 276.497 206.577 277.145 205.299 277.145ZM202.419 272.465C202.419 274.517 203.607 275.849 205.425 275.849C207.243 275.849 208.431 274.517 208.431 272.465C208.431 270.413 207.243 269.081 205.425 269.081C203.607 269.081 202.419 270.413 202.419 272.465Z" fill="#2F2B33"/>
</svg>
